<?xml version="1.0" encoding="utf-8"?>
<!-- Generator: Adobe Illustrator 18.1.0, SVG Export Plug-In . SVG Version: 6.00 Build 0)  -->
<svg version="1.1" xmlns="http://www.w3.org/2000/svg" xmlns:xlink="http://www.w3.org/1999/xlink" x="0px" y="0px"
	 viewBox="0 0 17 18.2" enable-background="new 0 0 17 18.2" xml:space="preserve">
<g id="Layer_1" display="none">
</g>
<g id="Layer_2">
	<g>
		<path fill="#822582" d="M16.9,6.9c-0.1-0.7-0.3-1.5-0.6-2.3c-0.4-0.9-0.9-2-1.9-2.9c-1.2-1.1-2.7-1.3-4.1-1.5
			c-0.5,0-1-0.1-1.5-0.2C8.2,0,7.2,0.1,6.4,0.2C4.3,0.5,2.5,1.7,1.2,3.7C0.7,4.5,0.4,5.2,0.3,6C0.1,6.9,0,8.9,0.2,9.9
			c0.1,0.3,0.1,0.7,0.2,1c0.1,0.2,0.1,0.5,0.1,0.7c0.3,1.5,0.8,2.9,1.6,4.2c0.3,0.5,0.8,0.8,1.3,1.1c0.1,0.1,0.3,0.2,0.4,0.2
			c1,0.6,1.9,1,2.9,1c0.1,0,0.2,0,0.4,0c0.2,0,0.5,0,0.7,0c0.1,0,0.1,0,0.2,0c0.3,0,0.6-0.1,0.9-0.2l0.1,0c1.5-0.4,3.4-1.1,4.4-2.8
			c0.4-0.6,0.9-1.2,1.3-1.8c0.2-0.3,0.4-0.6,0.6-0.8c0.8-1.1,1.2-2.1,1.3-3.3l0-0.1C16.8,8.4,16.9,7.5,16.9,6.9z M1.9,12.8
			c-0.6-1.7-0.8-3.5-0.7-5.7c0.1-1.4,0.6-2.6,1.4-3.6C1.9,4.9,1.5,6.3,1.4,7.9c-0.2,1.7,0.1,3.4,1,5.5c0.3,0.7,0.8,1.2,1.3,1.7
			c0.1,0.1,0.3,0.3,0.4,0.4c0.6,0.7,1.5,1.2,2.5,1.5c-0.7-0.1-1.4-0.4-2.2-0.8c-1.5-0.8-1.9-2.1-2.4-3.4L1.9,12.8z M9.6,16.2
			c-0.1,0-0.3,0.1-0.4,0.1c-0.1,0-0.1,0-0.2,0.1c-0.3,0.1-0.7,0.1-1,0.1c-0.9,0-1.7-0.3-2.5-0.9c-1-0.7-1.7-1.4-2.1-2.2
			c-0.5-0.9-0.8-2-1-3c-0.1-0.3-0.1-0.7-0.1-1c0-0.2,0-0.3,0-0.4c0-2,0.5-3.7,1.4-5.4c0.4-0.7,0.9-1.3,1.6-1.9
			c0.3-0.3,0.8-0.4,1.3-0.5c0.2,0,0.4-0.1,0.6-0.1C7.3,1,7.5,1,7.6,1c0.2,0,0.4,0,0.6,0c0.1,0,0.3,0,0.4,0l0.4,0
			c1,0.1,2.1,0.1,3,0.4c1.1,0.3,2,1,2.7,2.1C15.5,5,15.9,6.3,16,7.5c0.1,1.5-0.3,2.8-1.1,4c-0.2,0.2-0.3,0.5-0.5,0.7
			c-0.5,0.8-1,1.6-1.7,2.2C12,15.2,11.1,16,9.6,16.2z"/>
		<path fill="#822582" d="M15,5.9c-0.2-0.6-0.6-1.1-0.9-1.7c-0.1-0.2-0.3-0.4-0.4-0.6c-0.6-0.9-1.5-1.4-2.6-1.5
			c-0.4,0-0.9-0.1-1.3-0.1C9,2,8.2,1.9,7.4,2C6.3,2.1,5.4,2.5,4.9,3.3c-1,1.5-1.6,3.2-1.6,5.1c0,1.7,0.9,4.3,1.9,5.8
			c0.4,0.7,1.6,1.4,2.7,1.4c0.2,0,0.4,0,0.5-0.1c0.1,0,0.2,0,0.4,0c0.9-0.1,2-0.2,2.8-0.7c0.7-0.5,1.4-1.1,1.9-1.9
			c0.6-1,1.2-2,1.7-3.2C15.7,8.2,15.3,6.8,15,5.9z M9.7,14.3l-0.2,0c-0.2,0.1-0.5,0.1-0.7,0.1c-0.2,0-0.3,0-0.5,0.1
			c-0.1,0-0.2,0-0.4,0c-0.9,0-1.8-0.6-2.2-1.4c-0.6-1.3-1.2-2.7-1.4-4.2C4.2,7.4,4.6,5.8,5.4,4.4C5.6,4.2,5.7,4,5.8,3.8
			C6.1,3.3,6.7,3,7.4,2.9c0.2,0,0.5,0,0.7,0c0.4,0,0.8,0,1.2,0.1c1,0.2,1.5,0.6,1.8,1.1c0.2,0.4,0.5,0.8,0.7,1.2
			c0.3,0.4,0.6,0.9,0.8,1.3C13,7.2,13.1,7.8,13,8.8c0,1-0.2,2.4-0.7,3.4c-0.2,0.5-0.7,1.2-1.2,1.6C10.7,14.1,10.2,14.2,9.7,14.3z
			 M11.7,3.2c0.3,0.1,0.5,0.2,0.8,0.5c0.8,1,1.7,2.3,1.9,3.9c0.1,0.6-0.1,1.2-0.3,1.7C14.3,6.9,13,4.9,11.7,3.2z"/>
	</g>
</g>
<g id="Layer_3">
</g>
<g id="Layer_4">
</g>
<g id="Layer_5">
</g>
</svg>
