<?xml version="1.0" encoding="utf-8"?>
<!-- Generator: Adobe Illustrator 18.1.0, SVG Export Plug-In . SVG Version: 6.00 Build 0)  -->
<svg version="1.1" xmlns="http://www.w3.org/2000/svg" xmlns:xlink="http://www.w3.org/1999/xlink" x="0px" y="0px"
	 viewBox="0 0 575.5 399.9" enable-background="new 0 0 575.5 399.9" xml:space="preserve">
<g id="Layer_1" display="none">
</g>
<g id="Layer_2">
	<path d="M125.1,40.2c0.7,1.4,1.7,2.3,2.9,3c1.9,1,2.6,1.8,3.8,3.7c0.2,1,0.4,1.9,0.6,3c-0.2,1.1-1.2,1.5-2,2.1
		c-0.8,0.6-1.6,1.2-2.5,1.9c0.6,0.4,1.3,0.9,1.3,1.8c0,1.2-1.4,1.5-2.2,1.9c0.6-0.1,1.5,0.6,1.8,1.1c0.9,1.5,1,3.6,1.9,5.1
		c0.9,1.6,1.5,3.8,1,5.8c-1.2,2.3-3,4.2-5.5,5.2c-1.2,0.5-2.4,1.3-3.6,2c-0.5,1.8-0.5,1.8,0.9,4.9c1.6,1.1,3.2,2.4,5,3.6
		c1.3,0.9,2,2.3,2.9,3.5c2.8,3.9,4.6,8.3,6.7,12.5c1.6,3.2,2.9,6.5,4.6,9.6c0.4,0.8,1.2,1.4,2,2.5c0.3,0.7,0.8,1.8,1.2,2.9
		c1.6,4.2,3.9,8.1,6.3,11.9c2,3.2,3.7,6.7,6,9.7c1.3,3,3.2,5.6,4.9,8.3c1.4,2.3,3.2,4.3,4.8,6.5c0.5,0.6,0.9,1.2,1.4,1.8
		c1.2,1.5,2.5,3,3.8,4.5c2.5,2.8,5.1,5.4,8.1,7.7c0.9-0.1,1.4-0.7,1.7-1.4c1.3-2.9,3.2-5.4,4.8-8.1c0.4-0.7,1-1.4,1.6-2
		c1.1-1.2,2.4-1.8,4.1-1.6c0.7,0.1,1.4,0,1.6,0c2.2,0.9,4,1.5,5.8,2.3c0.8,0.3,1.5,0.7,2.2,1.1c1,0.6,2.1,1.1,3.1,1.7
		c0.5,0.3,1,0.7,1.5,1c1.2,0.8,2.3,1.7,3.6,2.3c1.5,0.7,2.8,1.5,4.2,2.6c0.4,1.1,0.8,2.4,1.2,3.7c-1.4,4.1-3.2,7.9-4.8,11.8
		c2.4,3,0.9,5.6-0.6,7.9c-0.3,1.7-0.6,3.2-0.9,4.6c-0.9,0.9-1.7,1.8-2.8,3c0,0.9-0.2,2.3-1.4,3.7c-0.5,0.3-1.2,0.7-2.1,1.3
		c-0.6,1.2-1.3,2.6-3.1,3.7c0.1,0-0.4,0.1-0.7,0.3c-2.9,1.4-5.6,0.7-8.3-0.5c-0.3-0.1-0.6-0.3-0.9-0.5c-0.1,0-0.2,0-0.1,0
		c-2,1-4,1.9-6.2,2.9c-3.5-0.7-7.1-1.5-10.7-2.2c0,0,0,0.1,0,0.1c-1-0.3-1.9-0.6-2.9-0.9c-2.7-0.9-5.2-2.1-6.9-4.5
		c-1.2-1.6-2.5-3.2-3.8-4.8c-0.4-0.5-0.8-1-1.2-1.3c-2.6-1.6-5-3.4-7.4-5.3c-1.4-1.1-2.7-2.3-4.1-3.4c-3.1-2.6-6.5-4.9-9.7-7.3
		c-2.2-1.6-4.4-3.2-6.6-4.7c-0.2-0.1-0.5-0.1-0.7-0.2c-0.6,0.2-0.6,0.6-0.6,1c0,1.7,0.1,3.4-0.1,5.1c-0.3,2.4,0.2,4.7,0,7.1
		c-0.1,1.8,0.7,3.3,1.3,4.9c0.3,1,0.8,1.9,0.8,2.9c0,0.3,0.1,0.7,0.2,1c1.3,2.9,1.7,6,2.6,9c0.8,2.4,1.2,4.9,1.3,7.5
		c0.1,1.4,0.5,2.8,0.7,4.3c0.1,1.1,0.4,2.2,0.1,3.3c-0.5,2.2-0.5,4.5-0.8,6.8c-0.3,3.1-0.9,6.2-0.7,9.4c0,1-0.4,2-0.6,2.7
		c-1.1,1.2-2.3,1.4-3.5,1.4c-1.9,0-3.7,0-5.6,0c-0.6,0-1.2,0.1-1.9,0.2c0.1,0.7,0,1.3,0.2,1.8c0.8,2,1.6,3.9,1.9,6.1
		c0.1,0.5,0.4,0.9,0.6,1.4c0.2,0.5,0.6,1.1,0.7,1.6c0.1,2,1.2,3.5,1.9,5.2c0.9,2.2,1.9,4.3,2.6,6.6c1.1,3.8,2.7,7.3,4,11
		c0.5,1.6,0.9,3.2,1.5,4.8c0.7,2,1.4,4,2.1,5.9c0.6,1.8,1.2,3.5,1.9,5.2c1.5,3.9,3.1,7.9,4.6,11.8c0.7,1.8,1.3,3.7,2.1,5.5
		c1,2.6,2.1,5.2,3.2,7.7c0.9,2,2.1,3.9,2.9,5.9c1.4,3.2,3.1,6.2,4.4,9.4c1.1,2.7,2.4,5.4,4,7.9c1.2,2,2.5,4,3.5,6.1
		c1,1.9,2.2,3.6,3.4,5.4c2.4,3.7,4.9,7.3,7.3,10.8c0.4,0,0.6,0.1,0.7,0.1c1.5-0.9,3-1.4,4.8-1.6c2.3-0.2,4.6-0.9,7-0.9
		c1.5,0,3-0.3,3.8-0.4c2,0.2,3.3,0.4,4.7,0.5c0.3,0,0.7,0,1,0.1c2.7,0.9,5.7,1,8.4,2.1c0.2,0.1,0.5,0.2,0.7,0.2
		c2.4,0,4.4,1.3,6.4,2.3c2,1,2.6,2.2,2.3,4.9c-1.9,2.4-4.1,4.5-7,6c-0.3,0.2-0.6,0.3-0.9,0.5c-2.5,2.1-5.5,3.6-8.2,5.5
		c-1,0.7-2.1,1.4-3.3,2.3c-2.5,0.4-4.9,1.7-7.2,3.2c-0.8,0.5-1.5,1.1-2.4,1.5c-3.3,1.7-6.6,3.3-10.4,3.7c-0.7,0.1-1.3,0.3-1.5,0.3
		c-2.3,0-2.9-2.3-4.8-2.4c-0.2,1.8,0.6,3.5,0.4,5.3c-2.2,1.6-4.4,3-6.7,4.2c-1.9,1-3.8,1.5-5.9,0.8c-0.6-0.2-1.2-0.1-1.4-0.2
		c-3-1.1-4.6-3.1-5.8-5.5c-0.6-1.3-1.4-2.5-2.5-3.5c-1-0.9-1.6-2.2-2.3-3.1c-0.8-2.4-1.6-4.7-2.3-6.7c0-2.1,2-2.7,2.6-4.2
		c-0.8-2.4-1.5-4.8-3-6.9c0-0.1-0.1-0.1-0.1-0.2c-0.2-2.1-1.6-3.7-2.5-5.5c-0.9-1.8-2-3.5-3-5.3c-0.4-0.7-0.8-1.5-1.2-2.3
		c-1.3-2.4-2.7-4.7-3.9-7.1c-1.6-3.1-3.2-6.2-5.1-9c-1.4-2.1-2.5-4.4-3.8-6.6c-0.9-1.5-1.5-3.2-2.4-4.7c-1.6-2.8-3.2-5.5-4.7-8.4
		c-1.7-3.2-3.4-6.4-5-9.7c-1.5-3.2-2.9-6.4-4.7-9.5c-1.2-2.1-2.3-4.3-3.5-6.5c-1.6-3.1-3.2-6.1-4.8-9.2c-1.4-2.6-2.9-5.1-3.7-8
		c-0.5-1.6-1.3-3.1-2-4.8c-0.2-0.2-0.5-0.5-0.6-0.6c-0.3-1.1-0.4-2.1-0.8-2.9c-1.4-3-2.9-5.9-4.4-8.9c-0.1-0.1-0.2-0.3-0.5-0.5
		c-0.3,0.2-0.7,0.4-0.9,0.7c-1.5,2.3-3.2,4.4-4.3,6.8c-1.4,3.1-3.4,5.8-5,8.8c-0.3,0.5-0.6,1-0.9,1.5c-0.5,1.1-1,2.1-1.5,3.2
		c-0.9,2.2-2.3,4.1-3,6.4c-0.7,2.3-1.9,4.4-2.6,6.6c-0.9,2.9-2.6,5.5-3.6,8.4c-1.3,3.7-2.7,7.3-3.9,11c-0.4,1.4-0.9,2.7-1.4,4
		c-0.6,1.7-1.1,3.4-1.6,5.1c-0.9,2.9-1.6,5.9-2.9,8.7c-0.7,1.5-0.9,3.2-1.5,4.8c-0.8,2.2-1.7,4.4-2.5,6.7c-0.3,0.7-0.4,1.4-0.6,2.2
		c-0.5,2.1-1,4.1-1.8,6.1c-0.4,1-0.9,2-1.2,3.1c-0.7,2.4-1.5,4.7-2.5,6.9c-0.2,0.4-0.4,0.8-0.5,1.2c-0.4,1.9-1.3,3.7-2.1,5.5
		c-0.2,0.5-0.4,1.1-0.6,1.7c0.7,0.8,1.5,1.5,2.5,1.8c3.1,1.1,5.8,3.1,8.7,4.7c0.8,0.5,1.6,1,2.5,1.5c0.7,0.9,1.3,2,2.6,2.5
		c4,3.8,7.9,7.6,10.8,12.4c0.9,1.5,2.2,5.3,2.9,8.1c-0.2,1-1.1,1.5-1.8,2.2c-0.9,0.2-1.9,0.4-2.5,0.5c-4.4-0.3-8.4-0.6-12.3-0.9
		c-0.9-0.3-1.6-0.7-2.4-1c0,0.1,0,0.1,0,0.2c-1.8-0.3-3.6-0.7-5.5-1c-2.1-0.3-4.2-0.7-6.2-1.3c-1.6-0.5-3.3-0.9-4.9-1.3
		c-1.8-0.4-3.6-0.8-5.4-1.3c-1.7-0.5-3.3-1.1-5.1-1.7c-0.2,0.1-0.6,0.2-1,0.4c-1.2-0.4-2-1.3-2.8-2.3c0.1-0.9,0.2-1.8,0.3-2.7
		c-0.2-1.4-0.5-2.9-0.7-4.3c-0.8-0.5-1.3,0.2-1.7,0c-1.7,1.3-2.9,3-4.9,3.8c-0.5,0.2-0.8,0.8-1.2,1.2c-0.3,0-0.6,0.1-0.8,0
		c-1.4-0.7-2.9-1.4-4.3-2.2C8,384.9,6.9,384,5.8,383c-1.4-1.3-3.2-2.1-5.1-3.3c-0.9-1.8-0.9-4-0.2-6.2c0.7-2.1,1.3-4.2,1.9-6.3
		c0.3-1.2,0.3-2.5,0.9-3.7c0.7-1.5,1.2-3.2,2-4.7c0.9-1.5,2-2.9,3.5-5c0.6-1.5,1.5-3.7,2.4-5.8c0.7-1.6,1.5-3.2,2.2-4.8
		c1.8-4.2,3.6-8.4,5.4-12.6c1.4-3.4,2.8-6.9,4.2-10.3c1-2.5,1.7-5.1,3-7.5c1.4-2.6,2.1-5.5,3.3-8.2c1.1-2.6,1.8-5.5,2.8-8.1
		c1-2.7,2.3-5.3,3.5-8.1c0.1-2.3,1.1-4.6,1.9-6.9c0.9-2.5,2.1-5,3.1-7.5c0.3-3.3,1.3-6.5,2.6-9.5c0.9-2.1,1.8-4.2,2.9-6.2
		c1-1.9,1.3-4.2,1.8-6.3c0.2-0.7,0.3-1.3,0.5-2c1-2.7,1.4-5.5,1.7-8.4c0.2-1.7,0.3-3.4,1-5c0.4-0.8,0.3-1.8,0.4-2.6
		c-0.9-1.7-2.2-2.8-3.7-3.7c-0.8-0.5-1.6-1-2.4-1.5c-2-1.2-4.4-1.8-6.1-3.5c-1.1-0.1-2-0.5-2.6-1.7c0.2-1.7,0.8-3.5,1.6-5.1
		c1.2-2.4,2.5-4.8,3.9-7.2c0.9-1.6,1.6-3.3,2.4-5c1.3-3,1.7-6.2,3.1-9.1c0.2-2.3,1.5-4.3,1.9-6.6c0.3-1.7,0.6-3.5,0.9-5.2
		c0.1-0.7,0.3-1.3,0.5-1.9c0.6-2,1.3-4,1.9-6.1c0.1-0.4,0.1-0.8,0.1-1.3c0.1-1.8,0.3-3.5,0.5-5.3c0.3-2.5,0.3-5.1-0.2-7.6
		c-0.2-1.1-0.2-2.4,0-3.5c0.3-1.7,0.7-3.3,0.3-5c-0.1-0.7-0.1-1.6,0.1-2.3c0.4-1.4,0.3-2.9,0.3-4.3c0-1.3-0.1-2.5,0.4-3.8
		c0.1-0.4,0.1-0.8,0.1-1.3c0-2,0.1-3.9,0.8-5.8c0.2-0.6,0.2-1.3,0.2-2c0.1-2.3,0.2-4.6,0.2-6.9c0-0.3-0.1-0.7-0.1-1
		c-0.1-2.8-0.1-5.6-0.2-8.4c0-1.4,0.3-2.7,1-3.9c0.5-0.9,1-1.8,1.6-2.6c1.3-2,2.7-4.1,4.1-6.1c1.3-1.8,2.6-3.5,4-5.2
		c1-1.3,1.8-2.6,2.5-4.1c1.3-3,2.7-6,4.4-8.8c0.6-1,1.5-1.8,2.3-2.7c0.7-0.8,1.4-1.7,2-2.4c0.1-0.9,0.1-1.6,0.3-2.2
		c0.4-1.3,0.5-2.6,0-4c-0.2-0.5-0.1-1-0.2-1.5c0-0.5,0-1.1-0.1-1.5c-0.7-1.7-0.6-3.5-1.2-5.2c-0.8-2.5-0.6-5-1.1-7.5
		c-0.1-0.5,0.2-1,0.3-1.6c-0.2-1-0.5-2-0.7-3.1c-1.3,0.1-2.4,0.3-3.4,0.4c-1.4-0.5-2.4-1.4-3.3-2.5c-1.2-2.4-1-4.8,0.2-7.5
		c1.2-1.1,2.5-2.4,4-3.8c-0.2-0.8-0.3-1.6-0.5-2.7c-0.5-0.1-1-0.3-1.5-0.2c-1.1,0.3-2.1,0.7-3.1,1c-2.9,1-5.8,1.6-8.5,3.1
		c-0.4,0.2-0.8,0.2-1.2,0.4c-1.9,0.6-3.7,1.3-5.6,1.8c-2.9,0.7-5.6,1.8-8.5,2.6c-1.1,0.3-2.3,0.7-3.4,1.1c-1.8,0.7-2.4,0.7-4.7,0.4
		c-0.6-0.5-0.5-1.1,0-1.6c0.7-0.7,1.4-1.5,2.3-2c4.2-2.9,8.7-5.2,13.4-7.2c3.1-1.4,6.4-2.2,9.6-3.3c1-0.4,2-0.9,3.3-1.5
		c0.3-0.2,0.6-0.9,0.6-1.6c0-1.3,0-2.6-0.2-3.8c-0.6-3.2-1.4-6.4-2.2-9.8c0.2-0.6,0.5-1.4,0.7-2.2c0.4-1.6,1.3-3,2.7-3.9
		c1.9-1.2,3.6-2.8,5.9-3.4c0.6-0.2,1.1-0.5,1.6-0.8c4-2.4,8.3-4.1,12.8-5.4c2.4-0.7,4.8-1.5,7.4-1.8c0.3,0,0.7-0.2,1-0.2
		c2.4-0.7,4.7-1.4,7.1-2c0.9-0.2,1.8-0.3,2.7-0.4c1.3,1,2.8,1.4,3.7,2.7c1,1.4,2.2,2.8,3,4.4c0.9,1.7,2,3.3,3.3,4.8
		c1.2,1.5,2.3,2.9,2.7,4.8c0,0.1,0.2,0.3,0.4,0.6c0.5-0.1,1.1,0,1.6-0.2c2.7-1.1,5.4-2.4,8.2-3.3c2.1-0.7,4.1-1.5,6.2-2.1
		c1.6-0.5,3.3-0.9,4.9-1.4c1.3-0.5,2.7-0.4,4-0.5c0.6,0,1.2,0.2,1.5,0.9c0,1-1,1.5-1.2,2.4c-2.7,1.6-5.3,3.2-7.9,4.8
		c-3.1,1.8-6.5,3-9.8,4.3c-1.5,0.6-2.7,1.3-3.9,2.6c0.1,0.5,0.2,1.1,0.5,1.5c1.7,3.2,3.3,6.5,4.3,10
		C125.4,37.5,125.6,38.8,125.1,40.2z M118.4,58.7c2.8-0.5,6.6-2.2,8.3-2.8c-0.8-0.8-1.9-1.6-1.3-3c1.8-0.8,3.4-2,4.9-3.3
		c-0.4-1.1-0.8-2.1-1.2-3.1c-2.3-1.8-4.7-3.2-6.3-5.6c0-0.6,0-1.1,0.1-1.6c0.1-0.6,0.3-1.1,0.3-1.3c-1.1-5-3-9.3-5.5-13.3
		c0.2-1,0.4-1.8,0.7-2.7c1.2-0.3,2.3-0.8,3.4-1c1.2-0.2,2.3-0.6,3.4-1.1c0.4-0.2,0.8-0.3,1.2-0.5c2.8-1.2,5.6-2.3,8.2-3.9
		c1.3-0.8,2.6-1.6,3.9-2.4c0.3-0.2,0.6-0.6,1.1-1.1c-0.9,0.1-1.4,0-1.9,0.1c-1.1,0.3-2.1,0.6-3.2,0.9c-2.1,0.7-4.2,1.2-6.3,2
		c-3.3,1.3-6.5,2.8-10,3.8c-0.9,0.3-1.8,0.6-2.6,1.1c-0.2,0.1-0.5,0-0.8,0c-0.3-0.5-0.5-1-0.7-1.3c0.2-0.7,0.3-1.2,0.3-1.5
		c-0.4-1.9-1.3-3.3-2.5-4.6c-1.5-1.5-2.7-3.3-3.7-5.1c-0.4-0.7-0.9-1.4-1.4-2.1c-1-1.2-2-2.4-3-3.6c-1.3-0.2-2.5,0-3.6,0.4
		c-1,0.4-2.1,0.7-3.2,1C96,3.4,94.9,3.5,93.7,4c-1,0.4-2.2,0.3-2.9,0.4c-1.3,0.4-2.1,0.7-3,0.9c-3.4,0.7-6.6,2.1-9.8,3.5
		c-2.9,1.3-5.8,2.8-8.7,4.2c-3.1,1.6-5.3,3.9-6.1,7.4c0.2,0.5,0.4,1,0.6,1.4c1.1,2.3,1.5,4.8,1.8,7.3c0.2,1.5,0.1,3,0.8,4.3
		c-0.1,0.3-0.1,0.5-0.1,0.7c-0.3,0.8-0.7,1.6-1,2.3c-2.1,2-3.1,2.5-5.7,2.5c-1,0-2,0.2-3,0.6c-2.7,1.2-5.4,2.4-8.2,3.4
		c-3.4,1.2-6.2,3.4-9.3,5.2c-0.5,0.3-0.8,0.7-1.5,1.3c2.3-0.2,4.2-0.6,5.9-1.4c0.5-0.2,1.1-0.3,1.7-0.5c1.6-0.5,3.2-1,4.8-1.6
		c0.9-0.3,1.7-0.6,2.6-0.9c1.5-0.5,3.1-0.9,4.6-1.5c1.4-0.5,2.8-1.2,4.2-1.8c1.9-0.7,3.8-1.5,5.5-2.6c0.6-0.4,1.4-0.7,2.1-1
		c0.8-0.4,1.6-0.5,2.4-0.1c0.9,0.6,1.4,1.5,1.6,2.5c0.3,1.4,0.5,2.8,0.7,4.3c-0.9,0.5-1.7,1-2.6,1.4c-0.6,0.8-1.2,1.5-1.8,2.1
		c-1.1,3.2-1.1,4.2,0.6,6.6c0.8,0.1,1.6,0.3,2.6,0.5c0.8-0.4,1.6-0.8,2.5-1.3c0.3,0.2,0.6,0.3,0.7,0.4c1.3,2.4,1.8,5.1,1.9,7.8
		c-0.6,1.7,0,3.3,0.1,5c0.2,2,0.6,4,1.2,6c0.7,2.4,1,4.8,0.8,7.3c-0.1,1.3-0.4,2.5-0.6,3.9c-0.6,0.6-1.2,1.5-1.9,2.1
		c-1.5,1.2-2.8,2.7-3.6,4.5c-0.9,1.9-2.3,3.6-2.5,5.8c0,0.4-0.3,0.8-0.5,1.1c-0.7,1.2-1.3,2.3-2.2,3.9c-0.5,0.5-1.3,1.3-2.2,2.2
		c-1.4,1.4-2.7,2.9-3.5,4.6c-0.8,1.7-2,3.1-3.1,4.6c-0.7,1-1.2,2.1-1.6,3.1c-0.4,0.9-0.6,1.9-1,3.2c0.1,2.4-0.3,5.1,0.4,7.8
		c0.1,0.5,0,1,0.1,1.5c0.2,3.3-0.3,6.6-0.7,9.9c-0.4,3.2-0.5,6.4-0.8,9.6c-0.2,2-0.1,4.1-0.1,6.1c0,0.7-0.1,1.4-0.1,2
		c-0.1,0.9-0.3,1.8-0.4,2.8c-0.1,0.8-0.2,1.7-0.3,2.5c0.4,2.2,0.5,4.3,0.4,6.5c-0.1,2.7-0.3,5.4-0.6,8.1c0,0.6-0.3,1.1-0.4,1.7
		c-0.6,2.5-1.6,5-2.2,7.5c-0.7,3.2-1,6.5-2.3,9.6c-0.4,1-0.8,2-1.1,3.1c-0.6,1.9-1.1,3.7-1.6,5.6c-0.4,1.3-0.8,2.6-1.3,4.1
		c-0.2,0.4-0.6,1-1,1.7c-0.7,1.3-1.4,2.5-2.1,3.8c-0.7,1.3-1.5,2.5-2,3.8c-0.8,1.9-1.7,3.8-1.9,5.9c1,0.5,2,0.9,2.9,1.4
		c2,1.1,3.9,2.4,6,3.3c2.3,1,4.1,2.7,5.6,4.6c0.4,2.6-0.1,5.1-1.3,7.2c-0.2,2.2-0.3,4.3-0.9,6.4c-0.5,1.9-1.2,3.9-1.5,5.9
		c-0.4,2.5-1.2,5-2.4,7.2c-1,1.8-1.7,3.7-2.6,5.5c-0.6,1.3-0.8,2.8-1.2,4.1c-0.6,1.6-1,3.2-1.2,4.9c-0.1,0.7-0.3,1.3-0.5,1.9
		c-0.8,2-1.7,4.1-2.6,6.1c-0.9,2-1.7,4.1-1.6,6.1c-0.9,2-1.8,3.9-2.5,5.8c-1.6,4.1-3.2,8.2-4.7,12.3c-0.1,0.3-0.2,0.6-0.3,1
		c-0.5,1.4-0.9,2.9-1.5,4.3c-1.8,4.4-3.6,8.8-5.4,13.1c-0.5,1.2-1,2.3-1.4,3.5c-1.4,3.4-2.7,6.7-4.1,10.1c-0.4,1.1-0.9,2.2-1.4,3.3
		c-1.7,3.5-3.5,7-4.4,10.8c-0.5,1.9-1.3,3.4-2.7,4.8c-0.6,0.6-1.1,1.3-1.6,1.9c-0.6,0.8-1.1,1.7-1.6,2.5c-1.9,5.3-3.1,10.7-3.8,16.4
		c0.6,0.5,1.1,1.1,1.7,1.5c1.4,1,2.9,2.1,4.2,3.2c1.4,1.2,3.1,2,4.7,2.9c0.3,0.2,0.7,0.1,0.9,0.1c2.4-1,3.9-3,5.9-4.3
		c0.2-0.5,0.3-0.9,0.4-1.2c1.8,0.2,2.7,1.4,3.5,2.7c0.5,0.8,0.8,1.7,1,2.6c0.4,1.5,0.8,3.1,1.2,4.6c2.3,1,4.5,1.7,6.9,2.1
		c3,0.5,5.9,1.3,8.9,2.1c2.9,0.8,5.9,1.4,8.9,2c0.4,0.1,0.8,0.2,1.3,0.2c1.7-0.1,3.4,0.3,4.9,1.1c0.9,0,1.8-0.2,2.5,0
		c2.7,0.8,5.4,0.4,8.1,0.5c0.8,0,1.5-0.1,2.3-0.1c0.3-0.4,0.5-0.8,0.6-1.1c-0.5-1.5-1-2.8-1.5-4.2c-0.2-0.5-0.3-1-0.6-1.4
		c-1.8-2.6-3.2-5.3-5.4-7.6c-1.7-1.7-3.2-3.5-5-5c-0.7-0.6-1.5-1.1-2.2-1.7c-2.9-2.7-6.3-4.8-10-6.4c-1.2-0.5-2.3-0.9-3.4-1.4
		c-0.6,0.1-1.1,0.2-1.5,0.3c-0.6-0.8-0.4-1.5-0.2-2.3c0.4-1.7,1.4-3.2,1.6-5c1.5-2.7,1.9-5.8,3.5-8.4c0.2-0.4,0.2-1,0.3-1.5
		c0.3-1.1,0.5-2.3,1-3.4c0.7-1.4,1.1-2.8,1.2-4c0.5-1.2,1.1-2.1,1.3-3.1c0.4-1.9,1.1-3.7,1.8-5.6c0.7-1.7,1.4-3.5,1.8-5.3
		c0.3-1.3,0.6-2.5,1.1-3.6c0.2-0.5,0.5-1.1,0.6-1.7c1.1-3.9,2.4-7.7,3.7-11.6c1.6-4.6,3.2-9.3,4.8-13.9c0.4-1.2,0.8-2.4,1.4-3.5
		c1.4-2.5,2.2-5.3,3.2-8c0.6-1.7,1.1-3.4,1.9-5c1.3-2.8,2.8-5.6,4.2-8.4c0.5-1.1,0.9-2.2,1.5-3.2c1.8-3,3.7-5.9,5.2-9
		c0.2-0.5,0.7-1,0.9-1.5c1-2.1,2.7-3.7,3.9-5.6c0.6-0.9,1.4-1.6,2.2-2.6c0.5,0.4,1,0.8,1.5,1.2c0.2,1.1,0.4,2.1,0.9,3.2
		c1.6,3.4,3.1,6.8,4.5,10.2c2.2,5.1,4.2,10.3,6.9,15.2c1.4,2.6,2.8,5.2,4.1,7.9c0.7,1.4,1.3,2.8,2,4.1c2.4,4.1,4.5,8.3,6.5,12.6
		c0.5,1.1,1,2.3,1.6,3.5c1.3,2.5,2.7,4.9,4.1,7.3c1.4,2.5,2.7,5,4.2,7.5c1.4,2.4,2.4,5,4.2,7.3c1,1.3,1.6,2.8,2.4,4.2
		c1.5,2.7,3.1,5.4,4.6,8.2c1.8,3.5,3.6,6.9,5.6,10.2c1.5,2.4,2.8,4.8,3.8,7.4c0.2,0.6,0.5,1.3,0.9,1.8c1.4,2.2,2.1,4.6,2.9,7
		c0.3,1,0.5,2.2-0.2,3.3c-0.5,0.5-1.5,0.8-1.7,2.2c0.3,1.2,0.7,2.7,1.3,4.2c0.6,1.8,1.5,3.4,2.9,4.7c1.1,1.1,1.9,2.3,2.6,3.7
		c0.9,1.9,2.4,3.3,4.2,4.1c2.2,0,4.2,0,6,0c2-1.2,3.9-2.3,5.8-3.4c-0.1-0.6-0.2-1.1-0.2-1.7c-0.1-1.3-0.2-2.5-0.2-3.8
		c0-0.6,0.2-1.2,1-1.5c0.8,0.1,1.7,0.3,2.3,0.4c1.2,1,2.2,1.8,3.1,2.5c3.2,0,5.9-1.4,8.8-2.2c1.1-0.3,2.3-0.8,3.1-1.7
		c0.1-0.4,0.2-0.8,0.3-1.2c0.7,0,1.4,0,1.6,0c1.7-0.8,3.1-1.3,4.4-1.9c1.2-0.5,2.5-1,3.7-1.7c2-1.1,3.9-2.4,5.8-3.7
		c2.5-1.7,5.1-3.3,7.6-5.1c1.9-1.3,3.5-2.9,4.7-4.9c-0.4-0.9-1-1.4-1.7-1.9c-1.9-1.4-4.1-2-6.3-2.5c-2.7-0.5-5.4-1.5-8.1-1.9
		c-1.8-0.3-3.7-0.5-5.5-0.6c-1.8,0-3.5,0.2-5.3,0.3c-0.3,0-0.7,0-1,0.1c-2.5,0.5-5,1.1-7.4,1.6c-0.9,0.6-1.7,1.2-2.4,1.7
		c-0.9-0.1-1.4-0.7-1.8-1.2c-2-2.8-4-5.7-5.9-8.5c-0.8-1.1-1.6-2.2-2.2-3.4c-1.6-3.1-3.7-5.8-5.3-8.9c-1.3-2.5-2.9-4.8-4-7.4
		c-0.9-1.9-1.7-3.9-2.5-5.8c-0.9-1.9-1.9-3.8-2.7-5.7c-1.9-4.2-4.3-8.3-5.7-12.7c0-0.1-0.1-0.2-0.1-0.2c-1-2.3-2.2-4.6-3.1-7
		c-1.2-3.3-2.4-6.7-3.8-9.9c-1.1-2.6-2-5.2-2.8-7.9c-0.7-2.4-1.5-4.9-2.4-7.2c-0.7-2-1.3-4-2.1-6c-1.2-3-2.2-6-3.2-9.1
		c-0.2-0.7-0.5-1.5-0.9-2.1c-1.3-2.3-2.2-4.8-3-7.3c-1.2-3.4-2.2-6.9-3.3-10.4c-0.2-0.7-0.6-1.4-0.9-2.1c-0.1-0.2-0.3-0.4-0.6-0.6
		c-0.2-0.1-0.5-0.2-0.9-0.2c-0.4-0.1-0.9-0.1-0.9-0.8c0.9-0.7,2.1-0.9,3.3-0.9c1.5,0,3.1,0.1,4.6,0.1c2,0,4,0,5.9-0.2
		c1-0.9,1.2-1.9,1.2-2.9c0-1.4,0-2.7,0-4.1c0-2,0.2-3.9,0.6-5.8c0.7-3.2,0.6-6.4,0.2-9.6c-0.2-1.7-0.7-3.3-0.7-5
		c-0.1-2.8-1-5.3-1.6-7.9c-0.5-2-1.4-3.8-1.8-5.8c-0.6-2.9-1.7-5.7-2.8-8.8c0-2.5,0-5.4,0-8.3c0-1.6,0.2-3.2,0.6-4.8
		c0.7-2.8,1.1-5.6,1.1-8.5c0-0.8-0.1-1.7,0.1-2.5c0.4-1.8,0.3-3.5,0.2-5.2c-0.4-0.7-0.7-1.3-1-1.9c0.2-1,0.2-1.9,0.1-2.8
		c-0.3-2.1-0.2-4.1,1.4-5.8c-1.3-1.4-2.7-2.7-3.9-4.1c-1.2-1.5-2.3-3.1-3.6-4.9c-1.6-0.9-2.6-2.5-3.5-4.1c0.2-0.9,0.7-1.2,1.4-1.3
		c0.1,0.1,0.2,0.1,0.3,0.2c0.3,0.6,0.5,1.2,0.7,1.8c1.6,1.9,3.7,3.3,4.9,5.6c0.2,0.4,0.7,0.7,1,1.1c0.6,0.6,1.2,1.2,1.7,1.9
		c1.8,2.1,3.5,4.4,5.4,6.4c2.7,2.9,5.6,5.6,8.4,8.4c0.3,0.3,0.7,0.3,1.1,0.5c0.5,1.7,1.4,3.1,2.7,4.3c1.7,1.5,3.4,3.1,5.1,4.6
		c2.2,2.1,4.5,4.1,6.7,6.2c0.1,0.1,0.2,0.2,0.4,0.3c1.7,1.1,3.5,2.1,5.2,3.1c2.4,1.4,4.7,2.8,6.4,5.2c-0.9,2.1-0.6,4.3-0.1,6.7
		c1.6,1.1,3.2,2.1,4.8,3.3c2.6,1.9,5.7,3,8.3,4.8c1.7,1.2,3.5,2.4,5.2,3.6c1.9,1.3,3.8,2.5,6,3.2c1.9,0.7,3.7,0.3,5.4-0.4
		c0.6-0.3,1.2-0.7,1.1-1.6c-0.5,0-1-0.1-1.5-0.1c-2.4-0.2-4.7-0.7-6.8-1.9c-2.1-1.1-3.8-2.7-4.5-5.2c0.3-0.2,0.5-0.3,0.7-0.5
		c1.4,0.7,2.1,2,2.9,3c3.9,2.6,7.9,3,12.1,2c0.7-0.9,1.3-1.6,0.8-3c-1.7-0.2-3.4-0.4-5-0.5c-1.5-0.1-2.8-0.5-4.1-1.2
		c-1.3-0.7-2.7-1.3-4.3-2c-0.1-0.3-1-0.4-0.6-1.4c0.3-0.1,0.8-0.3,1.2-0.5c1.1,0.6,2.3,1,3.3,1.6c2,1.4,4.3,1.5,6.5,1.9
		c0.7,0.1,1.4,0.1,2,0c1.2-0.2,2.3-0.5,3.5-0.7c0.4-0.6,0.8-1.1,1.3-1.7c-0.5-0.2-0.7-0.4-1-0.4c-0.5,0-1,0.1-1.5,0.2
		c-1.3,0.2-2.7,0.3-4-0.1c-1.8-0.6-3.7-1.1-5.5-1.8c-1.7-0.6-3.2-1.5-4.1-3.1c0.2-1,0.6-1.5,1.5-1.5c0.2,0.2,0.4,0.2,0.5,0.4
		c0.4,1.3,1.3,1.9,2.6,2.1c0.4,0.1,0.9,0.2,1.2,0.4c1.4,1,3,1.2,4.6,1.5c2.4,0.4,4.7-0.1,6.7-1.7c0.7-0.6,1.2-1.3,1.3-2.4
		c-0.4,0-0.6,0.1-0.8,0.1c-1.8,0.4-3.6,0.5-5.3-0.1c-3.1-1.1-6-2.6-8.9-4.2c-0.8-0.4-1.4-1-1.6-2c0.2-0.3,0.4-0.6,0.5-0.9
		c3.6-1,4.4-1.5,6.3-4.2c-0.2-0.3-0.4-0.7-0.5-1c-2.4-0.2-4.4,0.6-6.2,1.7c-2,0.4-3.8,0.2-5.5-0.8c-1.2-0.6-2.5-1.1-3.7-1.6
		c-0.5-0.2-0.9-0.4-1.3-0.7c-2.2-1.7-4.5-3.3-6.7-5.1c-0.8-0.6-1.5-1.3-2.2-2.1c-1.6-1.9-3.4-3.5-4.9-5.5c-1.2-1.5-2.3-3.2-3.5-4.6
		c-3.7-4.3-6.6-9.2-9.5-14.1c-1.6-2.7-3.1-5.5-4.8-8.1c-2.3-3.5-4.4-7-6-10.8c-0.3-0.8-0.7-1.5-1.2-2.2c-1.7-2.6-3-5.5-4.4-8.3
		c-1.5-2.9-2.7-6-4.3-8.9c-1-1.9-1.8-3.8-2.9-5.7c-1.2-2.1-2.3-4.4-3.9-6.2c-1.5-1.7-3.1-3.4-5.1-4.5c-1.8-0.9-2.9-2.3-3.3-4.3
		c-0.2-1.1-0.5-2.1-0.7-3.3c0.6-0.9,1.1-1.7,1.7-2.5c3.3-1.2,6.1-2.8,7.8-5.8c0.3-1.4-0.5-3.7-1.1-5.7c-1.1-3.4-2.2-3.4-3.2-4
		c-0.8,0.2-4.2,0.6-5.2,0.3C119.2,59.1,118.4,58.7,118.4,58.7z M131,169c0.4,1,0.9,1.4,1.5,1.7c0.9,0.5,1.8,1,2.6,1.6
		c2.5,1.9,5.1,3.5,7.6,5.5c2.4,2,5,3.8,7.5,5.7c1,0.8,2.2,1.4,3,2.3c1.1,1.3,2.4,2.2,3.8,3c3.1,1.7,5.5,4.2,7.7,6.9
		c1.3,1.6,2.6,3.1,4.2,4.4c1.8,0.7,3.6,1.4,5.4,2c3.5,0.2,6.8,1.6,10.2,1.8c1.3-0.6,2.8-0.7,3.6-2.6c-2.1-0.6-4.5-0.1-5.9-2.1
		c0.1-0.6,0.2-1,0.3-1.6c-2.3-1.3-4.5-2.5-6.7-3.8c-2.2-1.4-4.4-2.9-6.4-4.2c-0.9-1.6-1.2-3.1-1.1-4.6c0-0.7,0.1-1.4,0-2
		c0-1.4-0.6-2.5-1.7-3.2c-0.8-0.6-1.7-1.1-2.6-1.6c-2.3-1.3-4.6-2.5-6.6-4.2c-1.1-1-2.1-2.3-3.3-3.2c-3.1-2.4-5.8-5.1-8.6-7.9
		c-0.5-0.5-0.7-1.3-1.2-2.2c-1.6-0.8-2.4-2.8-4-4.1c-1.6-1.2-2.9-2.8-4.4-4.2c-1.5-1.3-2.5-3.1-4.1-4.4c-0.2,0.2-0.4,0.3-0.4,0.5
		c-0.1,2.6-0.4,5.2,0.5,7.8c0.2,0.5,0.3,1,0.3,1.5C132.1,161.5,132.4,165.3,131,169z M203.3,181.4c0.7-0.7,1.2-1.5,1.6-2.3
		c1.1-2,2.1-4,3.2-6.1c0.4-0.7,0.8-1.5,1.1-2.3c0.3-0.8,0.4-1.6-0.1-2.5c-2.5-2-5.6-3.3-8.4-4.9c-1-0.6-2-1.2-2.9-2
		c-0.7-0.6-1.4-1.1-1.9-1.5c-1.3,0-2.2,0-3.1,0c-1.4,1.6-2.7,3.1-3.7,4.9c-0.9,1.6-1.8,3.2-2.7,4.9c2.1,1.4,4.4,2.5,7.3,1.9
		c1.9-1.2,4.1-1.7,6.4-2.1c0.6,0.2,1.3,0.3,1.8,0.5c1,1.1,1.7,2.1,1.3,3.4c-1,2.2-2.6,3.7-4.6,4.7c-0.4,0.2-0.7,0.4-0.6,1.1
		C199.7,179.8,201.4,180.6,203.3,181.4z M213.7,166c-0.4-0.3-0.9-0.9-1.5-1.3c-2.6-1.6-5.2-3.2-7.8-4.7c-0.9-0.5-1.8-0.9-2.5-1.6
		c-0.7-0.7-1.5-1.1-2.4-1.3c-1.3-0.4-2.5-0.9-4.1-1.4c-1.1,0-2.5,0-3.8,0c-1.3,1.3-2.4,2.6-3.2,4.2c-0.2,0.5-0.6,1.1-1,1.5
		c-1.3,1.5-1.9,3.4-3.1,4.9c-0.3,0.4-0.4,0.9-0.5,1.4c-0.1,0.4,0,0.7,0.6,0.8c0.3-0.4,0.8-0.7,1.1-1.2c1.2-2,2.3-4,3.4-5.9
		c0.8-1.4,1.7-2.7,3.1-3.7c0.7-0.2,1.5-0.4,2.2-0.6c2.2,0.5,3.8,1.6,5.3,2.8c1.6,1.3,3.4,2.2,5.1,3.2c1.5,0.9,3.1,1.7,4.7,2.5
		c1.1,0.6,2.1,1.5,2.6,2.5c0.3,1.5,0,2.7-0.6,3.8c-0.5,0.8-0.9,1.6-1.4,2.4c-0.9,1.4-1.8,2.8-2.6,4.3c-0.5,1-0.9,2.2-1.3,3.2
		c0.4,1,1,1.3,2.1,0.8c1.5-2.7,3.2-5.4,4.2-8.5c0.2-0.8,0.6-1.6,1-2.3C213.9,170,214.3,168.3,213.7,166z"/>
	<path d="M373.3,362.7c-0.3,0.6-0.4,1-0.6,1.4c-1,0.7-2,1.3-3,2c-0.9,0.2-1.8,0.4-2.7,0.7c-0.5,0.2-1,0.6-1.6,0.9
		c-0.1,0.5-0.1,1-0.2,1.5c0,0.4,0,0.8,0.1,1.3c0.3,0.7,0.8,1.5,1.1,2.2c0.7,1.7,1.9,2.8,3.4,3.6c1.8,1,3.4,2.2,4.8,3.9
		c0.3,1.4,1.8,2.8,0.9,4.7c-0.4,0.2-0.7,0.4-1.1,0.5c-0.5,0.1-1,0.2-1.5,0.3c-2.9,0.5-5.9,0.9-8.9,0.4c-1.9-1.3-2.9-3.2-3.7-5.3
		c-1.4-3.4-2.4-6.9-2.8-10.5c-0.5-0.7-0.9-1.4-1.3-2.1c-1.5-0.5-2.8-0.2-4.2,0.1c-1.1-0.3-2.2-0.5-3.5-0.1c-0.8,0.2-1.7,0.1-2.5-0.1
		c-2.1-0.4-4.1-0.9-6.2-1.3c-0.3-0.1-0.6-0.3-0.9-0.4c-2.8-1.1-5.7-2.1-8.5-3.2c-0.7-0.3-1.4-0.5-2.2-0.1c-1.3,1.7-1.1,3.7-1,5.6
		c0.5,1.5,1.1,3,1.6,4.6c1.1,1,2.3,1.8,3.8,2.2c2.8,0.9,4.8,2.8,5.8,5.6c0.4,1.1,0.9,2.2,1.3,3.3c0.1,0.4,0,0.8,0,1.3
		c-0.9,0.8-2,1.2-3.1,1.7c-1-0.1-2-0.2-3-0.3c-1.1-0.4-2.1-0.7-3.2-1.1c-0.2-0.1-0.4-0.1-0.5-0.1c-1.9-1.2-4.1-2.1-5.8-3.6
		c-1.6-1.3-3.3-2.7-5-4.1c-0.9-1.4-1.8-3-2.6-4.5c-1-1.8-1.4-3.8-1.7-5.8c-0.1-0.6-0.2-1.2-0.8-1.5c-0.7-0.1-1.1,0.4-1.5,0.8
		c-1,1.2-2,2.5-2.9,3.8c-0.7,1-1.3,2.2-1.8,3.3c-0.5,1.5-1.3,2.7-2.3,3.9c-2.8,3.2-4.8,6.9-6.4,10.9c0.1,2.1,0.9,3.8,2.3,5.3
		c-0.2,0.6-0.4,1.3-0.5,1.8c-0.8,0.8-1.7,1-2.6,1c-1.5,0-3,0-4.7,0c0,0-0.2-0.1-0.3-0.2c-1.4-2.3-2.5-4.8-2.5-7.6c0-1.6,0-3.2,0-4.8
		c0-2.8,0.5-5.5,1.4-8.2c0.7-2.2,1.5-4.3,2.1-6.5c0.6-1.8,1-3.6,1.6-5.6c-0.4-1.6-0.8-3.3-1.3-5c-0.5-1.3-1.2-2.6-1.8-3.8
		c-0.9-1.7-1.1-3.4-0.7-5.4c0.9-4,2.9-7.6,5.1-11c0.2-1.2,0.5-2.5,0.7-3.8c-0.2-0.7-0.4-1.4-0.6-2.1c-1.3-2.2-3.3-3.7-4.9-5.6
		c-0.8-1-1.5-2-2-3.2c-0.5-1.4-1-2.9-1.6-4.5c-0.1-1.8-0.2-3.8,0.4-5.8c0.2-0.6,0.4-1.4,0.8-1.9c1.7-2.2,3.4-4.4,5.5-6.3
		c2.5-2.3,5.1-2.7,8.2-1.4c2.6,2.2,2.6,2.2,3.3,3.8c-0.2,1.3-0.6,2.6-1.7,3.5c-1,0.4-1.6-0.4-2.7-0.5c-0.7,0.7-1.6,1.5-2.3,2.2
		c-0.4,1-0.5,1.8-0.1,2.7c1,0.6,2.1,1.3,3.2,1.9c1.6,0.9,3.3,1.2,5.1,0.5c0.7,0.2,1.5,0.4,2.1,0.6c0.2,0.1,0.2,0.1,0.3,0.2
		c1,1.3,2.1,2.7,3.2,4.1c3.7,0.4,7.4,0.3,10.7-1.9c1-0.7,2.1-1,3.3-1.3c1.1-0.3,2.3-0.6,3.4-0.8c1.1-0.2,2.2-0.4,3.3-0.4
		c1.2,0,2.3-0.1,3.5-0.4c1.9-0.5,3.8-0.8,5.8-0.3c0.6,0.2,1.3-0.1,2-0.1c1-0.1,2.1-0.3,3-0.1c1.5,0.3,3,0.3,4.6,0.3
		c0.4,0,0.8,0,1.3,0.1c1.7,0.3,3.3,0.7,5,0.8c1.1,0.1,2.2-0.1,3.3-0.2c0.7-0.1,1.3-0.2,2.3-0.4c1.7-1.2,3.6-2.6,5.5-4
		c1.4-1.1,2.2-2.5,2.8-4.2c-0.7-1.6-2.1-3-1.2-5.2c1.6-1.5,4.1-1.9,5.6-3.7c1,0,1.8,0,2.7,0c1.1,0.4,2.1,1,2.7,2.1
		c0.5,0.8,1.1,1.5,1.7,2.1c0.4,0.4,0.9,0.8,1.4,1.1c2.2,1,4.4,2.2,6.8,2.9c2.1,0.6,4.1,1.5,6.3,2c1.2,0.2,2.2,0.7,3.3,1.3
		c1.2,0.7,2.4,1.2,3.7,1.8c0.7,0.3,2.8,0.8,3.5,1.2c0.4,0.8,0.8,1.6,1.2,2.4c-0.3,1.8-2.3,3.5-2.4,5.3c-0.2,2.3-1.2,4.2-3,5.7
		c-0.2,0.2-0.3,0.4-0.4,0.4c-1.5,0.7-2.8,1.3-4.1,2c0.7,1.5,2.1,2.1,3.2,3c0.1,0.4,0.3,0.8,0.4,1.1c0.1,2.4-2.2,3.2-3.1,5.2
		c-0.5,0.4-1.1,1-1.8,1.3c-0.4,0.2-1,0.2-1.5,0.1c-2.3-0.5-3.9-0.2-6-1.1c-2.7-1.2-5.4-2.4-8.4-3c-1.1,0.6-2,1.5-2.5,2.7
		c-0.9,2.3-2.8,4.4-1.8,7.3c1.5,1.8,3.6,3,5.9,4c3.3,1.5,6.5,3.3,8.1,6.9c0.5,1.1,0.8,2.2,1.1,2.9c0,1.3-0.1,2.1,0,2.9
		c0.2,2.3-0.4,4.5-0.8,6.8c-0.2,1.7-0.7,3.3-1,5.2c-0.5,1.1-1.6,1.7-2.9,2.4c-0.8,0-1.8-0.1-2.6-0.1c-1.1-0.9-1.5-1.9-1.5-3.1
		c0-0.9,0-1.9,0-2.8c0-1.1,0-2.2,0-3c-0.6-1.4-1.1-2.5-1.6-3.5c-0.3-0.8-0.7-1.6-1.4-2.1c-2.5-1.8-5.2-3.1-8.1-4.3
		C374.8,361.8,374.1,362.3,373.3,362.7z M298.8,395.2c-0.2-0.5-0.2-0.7-0.3-0.9c-1.7-3-1.3-6,0.3-8.9c0.5-0.9,1.1-1.7,1.5-2.6
		c0.9-1.9,2.2-3.7,3.6-5.2c0.9-0.9,1.6-2,2-3.2c0.5-1.7,1.5-3,2.5-4.4c0.5-0.7,1.1-1.3,1.5-2.1c0.8-1.4,2-2.5,3.2-3.5
		c1.8-0.1,1.8-0.1,3.2,0.9c0.5,2.2,0.9,4.5,1.5,7.2c0.3,0.6,0.8,1.5,1.4,2.4c0.9,1.2,1.5,2.7,2.8,3.6c2.2,1.4,3.9,3.6,6.4,4.5
		c1.6,1.4,3.6,1.9,5.5,2.6c0.9,0.4,2,0.4,3.2-0.2c0.2-2.3-1.1-4.1-2.2-6c-0.9-0.5-1.9-0.9-2.9-1.4c-2.2-1.1-4.5-2-6-4.3
		c0-0.3,0.1-0.7,0.1-1.1c0-0.5-0.2-1-0.3-1.5c-1.1-5.6-0.9-4.2,0.6-8.9c0.1-0.4,0.5-0.8,0.9-1.2c2.6,0.7,5.1,1,7.4,2
		c1.1,0.5,2.1,1,3.3,1.3c2.4,0.7,4.9,1.5,7.3,2c1.1,0.3,2.3,0.2,3.5,0.2c1.8,0,3.7,0.4,5.5,0.1c1.3-0.2,2.7-0.2,4,0.7
		c1,1.2,1.2,2.9,1.6,4.4c0.6,2.6,1.1,5.3,2.2,7.8c0.4,0.9,0.8,1.9,1.2,2.9c0.5,0.6,1.1,1.2,1.6,1.8c2.6,0.3,5.1,0.1,7.6-0.2
		c0.3,0,0.6-0.3,0.8-0.4c0-1.4,0-1.4-0.9-2.9c-1.7-1.1-3.5-2.2-5.5-3.5c-0.7-1-1.6-2.2-2.6-3.5c-1.5-4.4-1.6-5.3-0.6-7.4
		c1.5-0.5,2.9-0.9,4.4-1.5c1.4-0.5,2.5-1.3,3.4-2.6c0.6-0.8,1.3-1.6,1.9-2.3c1.4,0,2.6,0,3.7,0c1.8,0.9,3.2,2,4.9,2.7
		c1.2,0.5,2.3,1.4,3.4,2.2c0.5,0.4,1,0.9,1.3,1.5c1.4,2.7,2.5,5.5,2.2,8.7c0,0.5,0,1,0,1.5c0,0.5,0.2,1,0.3,1.4
		c1,0.4,1.8,0.4,2.4-0.3c0.4-1.1,0.8-2.1,1.1-2.9c0.2-1.3,0.2-2.4,0.4-3.5c0.4-2.5,1.1-5,0.3-7.5c-0.1-0.5-0.1-1-0.2-1.5
		c-0.4-0.6-1-1.1-1.2-1.7c-0.8-1.9-2.3-3.1-4-4.1c-1.5-0.9-3.1-1.7-4.8-2.4c-1.2-0.5-2.4-1.3-3.3-1.8c-0.6-0.8-1-1.4-1.4-2
		c-0.2-1.2-0.3-2.6-0.5-3.7c0.8-3.4,2.4-6.3,4.4-8.9c0.7-0.2,1.3-0.4,2-0.6c0.8,0.3,1.6,0.5,2.4,0.8c2.4,1,4.9,2,7.3,2.9
		c0.8,0.3,1.6,0.6,2.4,0.8c1.1,0.3,1.3,0,2.5,0c0.3,0,0.8,0,1.2-0.3c1.2-1.3,3.3-2.1,2.5-4.4c-2.1-1.4-4-3.1-4.6-5.9
		c1.3-1,2.9-0.3,4.5-0.7c1.3-0.7,2.8-1.5,3.6-3c0.6-2.5,2.6-5,3.2-7.4c-0.3-0.6-0.6-1.1-0.8-1.6c-2.1-1.4-5.8-2.2-8-3
		c-3.2-1.2-6.3-2.3-9.5-3.5c-1.1-0.4-2.1-1.1-3.3-1.4c-2.1-0.4-3.5-1.6-4.8-3.2c-0.7-0.8-1.4-1.7-2.2-2.5c-2.6,0.1-4.4,1.6-6.1,2.8
		c-0.3,1.9,1.4,2.6,1.7,4.1c-0.7,1.5-1.4,3-2,4.1c-1,0.7-1.7,1-2.2,1.6c-1.6,1.7-3.6,2.8-5.4,4.2c-0.8,0.7-1.8,1-2.8,0.8
		c-0.9-0.2-1.8-0.1-2.7,0c-1.1,0.1-2.2-0.1-3.3-0.2c-1-0.1-2-0.5-3-0.6c-2.4-0.2-4.9-0.3-7.3-0.5c-2.1-0.2-4.2,0.1-6.3-0.1
		c-0.3,0-0.7,0-1,0.1c-1.3,0.3-2.6,0.6-3.9,0.9c-0.6-0.1-1.1-0.3-1.7-0.4c-1.5,0.6-3.1,1-4.7,1c-0.6,0-1.2,0.2-1.7,0.4
		c-1.4,0.6-2.7,1.3-4.1,2c-0.8,0.4-1.7,0.8-2.5,1.1c-2.6,1-5.3,0.7-7.9,0.4c-2.1-1.5-2.1-1.5-3.1-3.4c-0.3-0.6-0.7-1.1-1.7-1.6
		c-1.8,0-3.9,0-6,0c-1.8-1.5-4.1-2.2-5.2-4.5c0.1-1,0.2-1.9,0.3-2.8c1.4-1.6,2.7-3.2,4.4-4.4c0.8,0,1.3,0,1.9,0
		c0.1,0,0.1-0.1,0.2-0.2c-0.8-2.4-2.3-3.1-5.9-2.8c-1.3,0.6-2.2,1.8-3.3,2.7c-1.7,1.4-2.9,3.1-3.8,5c-0.5,1-1.1,3.8-1,4.7
		c0.5,2.3,1.2,4.6,2.4,6.6c1.1,1.9,2.9,3.3,4.3,4.6c0.8,1.1,1.4,1.9,1.9,2.7c0.5,0.9,0.8,1.8,1.1,2.6c-0.9,3.2-1.7,6.1-3.6,8.6
		c-0.2,0.3-0.3,0.6-0.4,0.9c-0.7,1.6-1.4,3.3-2.2,5.2c0,1.2,0,2.7,0,3.9c0.6,1.2,1.1,2.1,1.6,3c1.2,2.1,1.5,4.5,2.2,6.7
		c0.2,0.5,0.2,1,0.1,1.5c-0.6,3.2-1.3,6.3-2.8,9.2c-1.2,2.4-1.9,4.9-2.1,7.5c-0.3,3.5-0.1,6.9-0.1,10.2c0.4,1.1,0.7,2,1.1,2.8
		c0.2,0.4,0.6,0.7,0.9,1C296.3,395.6,297.4,395.4,298.8,395.2z"/>
	<path d="M437.8,228.7c-0.7,0.7-1.3,1.5-2,2.2c-1.8,1.9-3.1,4.2-4.6,6.4c-0.7,1.1-1.3,2.4-1.4,3.8c0,0.4-0.1,0.7-0.2,1.1
		c0.1,1.6,0.7,3.2,0.5,4.9c-0.5,1-1.2,1.9-2,2.4c-1.2,0.4-2.1-0.3-3.2-0.8c-0.1-0.3-0.3-0.6-0.4-0.9c-1.8-2.9-2.1-6-0.9-9.2
		c0.4-1.2,0.8-2.4,1.2-4c1.4-1.8,2.6-4.1,3.5-6.5c-1.2-3.4-2.7-6.7-3.5-10.1c-0.4-2-0.9-4-0.4-6.1c0.2-1,0.1-2.1,0.2-3.3
		c1.4-2.4,1.7-5.2,3.6-7.5c-0.5-0.9-1.3-1.5-2.1-2.3c-1.1-2.3-2-4.9-2.1-7.6c0-0.7-0.3-1.4-0.4-2.1c-0.2-2.4,0.5-4.7,1.9-6.6
		c0.4-0.6,0.9-1.1,1.4-1.7c1-0.5,2-1.1,3.1-1.7c0.9-0.1,1.8-0.2,3.1-0.3c0.2,0.1,0.8,0.2,1.7,0.4c0.3,0.4,0.8,1,1.5,1.8
		c0.1,0.3,0.3,0.9,0.5,1.6c-0.1,0.7-0.3,1.4-0.4,2c-0.7,1.2-2.3,1.7-2.5,3.3c0.3,1.2,0.8,2.4,1.9,3.3c0.4,0.3,0.7,0.9,1.1,1.3
		c0.7,0.2,1.3,0.3,2,0.5c0.9-0.1,1.8-0.3,2.6-0.3c2.9,0.1,5.6-0.6,8.5-1c0.6-0.1,1.3-0.2,1.9-0.3c2-0.2,4.1-0.5,6.1-0.7
		c0.8-0.1,1.6-0.1,2.3-0.1c1.3-0.1,2.6,0.1,3.8-0.4c0.4-0.2,1-0.1,1.5-0.1c1.1,0,2.3,0,3.4,0c2.4,0,4.7,0.4,6.9,1
		c1.2,0.3,2.5,0.5,3.8,0.8c0.5,0.1,1,0.2,1.4,0.4c1.2,0.5,2.4,0.5,3.7,0.3c0.5-1.5,0.8-3.1,1.5-4.6c0.6-1.4,1.8-2.5,2.9-3.5
		c0.7-0.4,1.3-0.8,1.9-1.1c0.9-0.5,1.3-1.3,1.3-2.3c0-0.9,0.1-1.8,0.1-2.6c1.1-2,3.2-2.3,4.6-3.6c0.7-0.1,1.3-0.2,1.8-0.2
		c1.8,1.2,3.2,2.9,4.6,5.8c1.7,1.2,3.6,1.9,5.5,2.8c2,1,4,1.8,6,2.6c1.1,0.4,2.2,1,3.3,1.5c1.2,0.5,2.3,1.2,3.6,1.3
		c0.5,0,0.9,0.4,1.3,0.6c0.4,0.9,0.3,1.8-0.1,2.5c-1.1,1.9-2.3,3.8-4,5.2c-0.6,0.5-1.2,1-1.9,1.5c-1.1-0.1-2.2-0.2-3.6-0.4
		c0.5,0.4,0.9,0.6,1.2,0.9c0.4,0.3,0.8,0.6,1.1,0.8c0,0.8,0,1.4,0,1.9c-0.7,1.7-2.2,2.6-3.7,3.4c-3.7,0.5-7.2,0.3-10.6-1.5
		c-0.3,0.3-0.5,0.5-0.6,0.7c-1.6,3-2.6,6.3-3.7,9.5c-0.2,0.7-0.3,1.5-0.4,2.2c1.9,0.9,3.7,1.6,5.4,2.7c2.2,1.5,3.2,3.6,3.3,6.1
		c0.1,1.8,0.2,3.5-0.3,5.3c-0.4,1.4-0.5,2.9-1.3,4.4c-0.8,0.4-1.6,1.2-2.8,1.2c-0.6-1.1-1.1-2.1-1.7-3.3c0.1-0.6,0.2-1.2,0.4-1.9
		c-0.4-2-0.4-4.1-2.4-5.5c-0.3,0-0.7,0-1,0c-0.1-0.1-0.2-0.2-0.3-0.3c-0.2-0.8-0.8-1.1-1.6-1.2c-1.4-0.2-2.8-0.4-4.2-0.6
		c-1.9,0.5-3.7,1-5.7,1.5c-0.2,2.6-0.3,5.4,0.4,8.1c0.2,0.9,0.8,1.7,1.7,2.1c1,0.5,2,1,2.8,1.5c1.2,1.3,0.9,2.7,0.9,3.9
		c-0.4,1-1.2,1.4-2.2,1.9c-3.4,0.4-6.6-0.4-9.4-2.5c-0.6-0.7-0.7-1.6-0.7-2.4c0-1.4,0-2.7-0.1-4.1c-0.1-1.9-0.6-3.8-1.5-5.6
		c-0.5-0.3-1.1-0.6-1.3-0.7c-2,0.1-3.5,0.2-5.1,0.3c-3.4,0-6.8,0-10.2,0c-2.4-1.2-5.1-1.4-7.6-2c-1,1.2-1.5,2.8-1.4,4.7
		c1.8,2.4,2,2.6,5.6,3.9c0.7,0.8,1.4,1.6,2.3,2.5c0,0.7,0.1,1.5,0.1,2.3c-0.9,1.6-2.1,2.3-3.8,2.6c-2.9,0.4-6-0.5-8-2.5
		c-0.4-0.4-0.8-0.8-1.2-1.2c-0.8-0.8-1.3-1.8-1.5-3c-0.1-0.8-0.3-1.7-0.5-2.5c-0.3-1.6-0.7-3.2-1-4.8c-1.2-0.6-2.2-0.3-3.2,0.3
		c-0.7,0.5-1.4,1-2.1,1.4C437.9,228.7,437.8,228.7,437.8,228.7z M430.8,200.9c-2,1.6-2.7,3.7-3.5,5.8c-0.1,0.3-0.2,0.6-0.3,0.8
		c-1,2.1-0.9,4.4-1.2,6.7c0,0.1,0,0.3,0,0.4c0.3,1.5,0.6,3.1,1,4.6c0.7,2.7,1.8,5.3,2.8,7.8c0.3,0.7,0.6,1.3,0.4,2.2
		c-1.3,1.8-1.9,4.2-3.6,5.8c-0.3,1-0.6,1.9-0.9,2.7c-1.1,2.9-1.4,5.8-0.3,8.9c0.4,0.4,0.9,0.9,1.4,1.3c1.4-0.2,1.2-1.3,1.5-1.9
		c-0.2-1.6-0.4-2.9-0.6-4.2c0.2-0.5,0.3-1,0.5-1.5c0.6-1.4,1-2.9,1.8-4.1c1-1.4,1.9-2.9,2.9-4.2c0.3-0.5,0.7-0.9,1.2-1.3
		c0.6-0.5,1-1,1.4-1.6c0.3-0.5,0.7-1.1,0.9-1.3c1.5-1,2.7-1.8,4-2.6c1.7-0.1,3.5-1.1,5.2,0.1c0,0.3,0.1,0.6,0,0.9
		c-0.4,1.7,0,3.3,0.3,4.9c0.1,0.8,0.5,1.5,0.5,2.3c0.2,2.2,1.7,3.4,3.2,4.6c1.1,0.8,2.3,1.4,3.7,1.7c1.4-0.2,2.6-0.6,3.9-1.2
		c0.2-0.1,0.3-0.3,0.5-0.4c0-0.6-0.1-1.2-0.1-1.6c-1-1.1-1.9-2.1-3.4-2.3c-0.3,0-0.6-0.3-1-0.4c-1.7-0.9-2.6-2.3-3.6-3.9
		c0.1-1.1,0.2-2.2,0.3-3.3c0.1,0,0.1,0,0.2,0c0.4-1.1,0.8-2.1,1.3-3.3c0.4-0.2,1-0.4,1.4-0.5c2.5,1.1,5,1.5,7.5,2.2
		c1.5,0.5,3.1,0.6,4.6,0.6c3.8,0.1,7.6-0.4,11.5-0.7c0.9,0.4,1.8,0.8,2.7,1.2c0.5,2.5,1.2,4.9,1.1,7.4c-0.1,1.7,0.4,3.3,0.6,5
		c1.8,1.5,3.9,1.5,5.9,1.9c0.6,0.1,1.2-0.2,1.8-0.3c0.4-0.3,0.7-0.5,0.9-0.7c-0.1-0.7-0.2-1.3-0.2-1.8c-1.8-0.8-3.6-1.6-5-3.4
		c-0.2-1.5-0.5-3.4-0.7-5.2c0-0.3,0.1-0.6,0.1-0.8c0-0.3,0.1-0.6,0-0.8c-0.3-1.2,0-2.3,0.6-3.3c0.6-0.6,1.2-1.1,1.5-1.5
		c1.5-0.3,2.6-0.6,3.7-0.8c0.6-0.1,1.1-0.2,1.7-0.3c1.6-0.2,3.1,0.3,4.6,0.6c0.3,0.1,0.7,0.2,1,0.4c1.2,0.9,2.9,1.4,3.5,3
		c1.5,1.1,1.8,2.6,1.8,4.3c0,1.1,0,2.1,0,3.1c0.4,0.3,0.6,0.5,0.9,0.8c0.8-1.3,1.4-2.6,1.5-3.6c0.1-2.4,0.2-4.8,0-7
		c-1.2-2.1-2.7-3.5-4.7-4.2c-0.1,0-0.3-0.1-0.4-0.2c-1.2-0.9-2.6-1.1-4-1.1c-1.9,0-3.9,0-5.8-0.1c-0.6,0-1.1-0.1-1.7-0.2
		c-0.3-0.1-0.5-0.4-0.8-0.7c0.5-0.3,0.8-0.7,1.2-0.7c1.1,0.1,2.3-0.1,3.3,0.1c1.3,0.3,2.5-0.1,3.6,0.2c0.2-0.2,0.3-0.3,0.3-0.4
		c0.5-1.3,0.9-2.5,1.4-3.8c0.4-1.3,1.3-2.4,1.4-3.8c0-0.3,0.2-0.5,0.3-0.8c0.8-1.9,1.6-3.8,2.4-5.7c0.1-0.2,0.3-0.4,0.5-0.7
		c1.6,1.3,3.4,1.9,5.3,2.3c2,0.5,3.9-0.1,6-0.1c0.5-0.9,1.6-1.3,2-2.5c-1-0.9-2.2-1.6-2.8-2.8c0.1-1.1,0.1-1.1,0.7-1.9
		c1.1,0.2,2.2,0.3,3.3,0.5c1,0.2,1.8-0.1,2.6-0.8c1.2-1.1,2.2-2.3,3-3.6c0.4-0.6,0.8-1.2,0.4-2.1c-0.8-0.2-1.6-0.3-2.4-0.6
		c-2.1-0.9-4.2-1.8-6.3-2.7c-1.5-0.7-2.9-1.4-4.4-2.1c-1.8-0.8-3.6-1.6-5.3-2.8c-0.3-0.2-0.6-0.3-0.9-0.4c-0.4-0.9-0.8-1.8-1.2-2.6
		c-0.4-0.9-1.2-1.5-1.8-2.2c-0.8-0.2-1.4-0.2-2,0.2c-1,0.6-2.2,1-2.8,2.2c-0.1,1.2-0.1,2.4-0.2,3.5c-0.7,1-1.4,1.8-2.3,2.4
		c-0.5,0.4-1.1,0.7-1.6,1c-2.1,1.4-3,3.5-3.2,6.1c0.5,0.1,1,0.1,1.5,0.3c0.4,0.2,0.8,0.4,1.3,0.7c-0.4,0.7-1,0.9-1.7,1
		c-1,0.1-2,0.3-3.2,0.5c-2-0.5-4.5-0.3-6.8-1.2c-0.2-0.1-0.4-0.1-0.6-0.1c-0.9,0-1.7-0.2-2.5-0.6c-1.3-0.5-2.6-0.8-4-0.7
		c-2.1,0-4.3,0-6.4,0c-0.9,0-1.8,0.2-2.7,0.3c-0.4,0-0.7,0.1-1.1,0.1c-2.1,0.1-4.1,0.2-6.2,0.4c-0.3,0-0.6,0.1-0.8,0.1
		c-2.2,0.4-4.5,0.9-6.7,1.1c-2.3,0.1-4.5,0.6-6.7,0.9c-1.6,0.2-3.2,0-4.4-1.1c-1.9-1.7-3.5-3.5-3.8-6.2c0.6-2.1,0.7-2.2,2.4-3.8
		c0.1-0.5,0.3-1,0.4-1.4c-0.4-1.2-1.1-1.8-2.2-2c-4.9,0.8-6.4,2.7-7.7,6.9c0.1,1.3,0.1,2.2,0.2,3.1c0,0.6,0,1.3,0.2,1.9
		c0.5,1.1,0.6,2.2,0.7,3.3c0.2,0.4,0.4,0.8,0.6,1.2c0.6,1.3,1.3,2.5,2.8,3C430.2,199.9,430.4,200.4,430.8,200.9z"/>
	<path d="M470.1,299.7c-0.6-0.8-1.2-1.5-1.6-2.2c-0.7-1.2-1.7-2.1-2.9-2.8c-1.5-0.9-2.6-2.1-3.7-3.4c-1.3-1.5-2.4-3.1-3.6-4.6
		c-0.4-1.4-0.8-2.8-1.1-4.2c-0.1,0-0.2,0-0.2,0c0-1.9,0-3.7,0-5.6c0-1.8,0.1-3.6,0.1-5.2c0.4-0.7,0.8-1.2,1.1-1.7
		c1.2-0.9,2.2-1.7,3.4-2.6c0.4,0.1,1,0.1,1.4,0.2c0.2,0.3,0.4,0.4,0.4,0.5c1,3.6,2.7,6.9,5.2,9.7c1.3,1.4,2.5,2.7,4.2,3.5
		c0.4,0.2,0.8,0.4,1.2,0.5c1.9,0.5,3.7,1,5.6,1.5c0.5,0.1,1,0.2,1.5,0.2c2.8,0,5.6,0,8.4,0c3-1,6.2-0.2,9.3-0.8
		c1.4-0.3,2.9,0,4.3-0.1c1,0,2-0.2,3-0.3c1.1-0.1,2.2-0.2,3.3-0.2c2,0,4.1,0,6.1-0.1c0.8,0,1.5-0.2,2.3-0.3c0.5-0.1,1-0.2,1.5-0.1
		c2.4,0.3,4.9,0.2,7.3,1c1.6,0.5,3.2,1,5,1c0.8,0,1.8,0.2,2.4,0.6c1.1,0.7,2.4,0.9,3.6,1.3c1.4,0.5,2.7,1,4.5,1.6
		c0.5,0,1.4-0.1,2.2-0.2c1.3-1.6,2.8-2.9,3.4-4.8c0.6-1.7,1.3-3.4,1.3-5.3c1.3-0.8,2.7-1,4.2-0.7c4,2.1,7.3,4.7,7.3,9.7
		c1.3,2,3,3.5,4.8,4.9c2.3,1.9,4.8,3.7,7.3,5.5c0.7,0.5,1.2,1.2,1.8,1.8c1.5,2.8,1.2,5.8,0.3,8.6c-1.9,1.6-4.1,1.7-6.3,2.2
		c1.1,1.2,2.1,2.4,3.2,3.6c0,0.6,0.1,1.3,0.1,1.8c-1.1,1.7-2.8,2-4.4,2.3c-2.1,0.3-4.1-0.1-6.1-1.2c-1.6-0.9-3.1-2.1-4.5-3
		c-0.8-0.1-1.3-0.1-1.6,0.8c0.3,0.8,0.7,1.7,1.2,2.8c0.6,0.4,1.2,0.8,1.8,1.2c0.8,0.6,1.7,1.2,2.5,1.8c0.3,0.2,0.5,0.5,0.8,0.6
		c2.7,1.4,4.5,3.8,6.6,5.9c1.5,1.5,1.9,3.2,1.6,5.5c-0.4,0.2-0.8,0.4-1.3,0.6c-0.5,0.1-1,0.2-1.4,0.2c-2.2-0.2-3.6-1.6-5.1-2.8
		c-1.5-1.2-3-2.1-4.7-3c-0.8-0.5-1.5-1-2.3-1.5c-2-1.1-4-2.1-6.2-2.9c-2.3-0.9-4.2-2.5-6.2-4c-0.7-0.5-1.4-1.1-2.3-1.8
		c-0.4,0.8-0.8,1.4-1.3,2.3c-2.3,2.2-5.2,3.6-8.9,4.1c-0.2,0.2-0.5,0.6-0.8,1c-0.3,2.3,1.2,4.1,2,6c0.8,1.9,3,2.7,4.2,3.9
		c1.6,0.7,3,1.1,4.2,1.9c1.3,0.9,2.4,2.1,3.5,3.3c0.5,0.5,0.6,1.3,0.9,2c-0.5,1.3-1,2.5-1.5,3.8c-0.6,0.1-1.2,0.3-1.7,0.2
		c-0.7-0.1-1.3-0.3-1.9-0.6c-3.1-1.2-6.3-2.4-9.3-4.1c-0.7-0.4-1.4-1-2-1.6c-0.9-1-1.8-2.1-2.6-3.1c-2-2.3-3.4-5-4.2-8
		c-0.4-1.5-0.8-2.9-1.3-4.6c-0.7-0.2-1.5-0.5-2.2-0.8c-1.5,0.5-2.9,0.6-4.3,0.1c-2,0.3-3.8-0.6-5.7-0.8c-1.4-0.1-2.8-0.6-3.9-1.7
		c-0.2-0.2-0.6-0.3-0.9-0.6c-1.4,2.2-2,4.5-2.2,7c-0.1,1-0.2,2-0.3,3.3c0.1,0.5,0.2,1.3,0.3,2.2c0.2,2.1,1.2,3.6,3,4.7
		c1,0.6,2.1,1.2,3,1.7c0.7,1.6,1.4,3,0.7,4.9c-1,0.6-2.2,1.3-3.4,1.9c-0.7,0-1.4,0-1.5,0c-1.6-0.6-2.7-1-3.8-1.5
		c-0.5-0.2-1-0.5-1.5-0.9c-0.9-0.5-1.7-1.1-2.5-1.6c-1-1.8-1.9-3.5-3-5.6c-0.1-1.1-0.2-2.7-0.3-4.3c0-0.4,0-0.9-0.1-1.3
		c-0.5-1.4-0.4-2.8-0.4-4.4c1.7-2.4,0.7-5.1,0.9-7.9c-0.5-0.3-1-0.6-1.4-0.9c-2.2,1.3-3.9,2.8-5.1,5c-0.5,1-1.2,1.9-1.8,2.8
		c-2.5,3.7-4.3,7.7-6.1,11.7c-0.8,1.9-1.4,4-2,5.8c-1.4,1.3-2.8,2-4.5,2.3c-2.7-0.8-3.1-3.1-3.3-5.9c0.2-0.5,0.6-1.4,1-2.4
		c0.6-1.2,1.2-2.4,1.7-3.7c0.3-0.8,0.4-1.6,0.4-2.5c0.1-1.4,0.2-2.7,0.6-4c0.3-0.8,0.3-1.7,0.4-2.5c0.1-1.7,0.2-3.4,0-5.1
		c-0.5-3.6-0.3-7.3-0.4-10.9C470.1,304.4,470.3,302.1,470.1,299.7z M472.7,340.4c0.4-0.9,0.8-1.6,1.1-2.4c0.3-0.8,0.4-1.6,0.6-2.3
		c0.6-1.1,1.2-2,1.6-3c1.4-3.8,3.4-7.2,5.6-10.5c0.5-0.8,1-1.6,1.4-2.4c0.9-1.6,2-2.9,3.4-4c1.7-1.4,3.4-1.7,5.5-1
		c0.4,0.8,0.8,1.7,1.2,2.6c0,1.1,0.1,2.2,0,3.3c-0.1,1.1-0.1,2.2-0.4,3.3c-0.5,1.5-0.6,3-0.5,4.5c0.1,1,0.4,2,0.4,3
		c0,3.1,1.5,5.7,2.9,8.1c2.1,1,4.1,2,6,2.9c1.2,0.2,2.2-0.1,3-1c0.3-1,0.2-1.8-0.6-2.7c-2.6-0.4-4.2-2.4-5.7-4.8
		c-0.3-1.5-0.6-3.2-0.9-4.6c0.2-1.4,0.6-2.6,0.6-3.7c0-1.7,0.3-3.2,0.8-4.7c0.5-1.6,0.8-3.4,2.4-4.4c0.4,0,0.8,0,1.2,0
		c0.3,0.2,0.6,0.4,0.8,0.6c1.7,1.2,3.6,2.2,5.8,2.5c2.4,0.3,4.7,0.6,7.1,0.1c0.5-0.1,1-0.1,1.5,0c0.9,0.2,1.8,0.4,2.5,0.6
		c0.6,0.8,1.1,1.4,1.5,1.9c0.2,0.9,0.5,1.7,0.5,2.5c0.1,3,1.6,5.3,3.1,7.7c1,1.5,2.3,2.7,3.4,4.1c1.3,1.6,3.1,2.4,4.8,3.3
		c1.6,0.8,3.4,1.4,5.2,2c0.7,0.2,1.4,0.7,2.2,0.3c0.3-1,0.3-2-0.1-3.2c-1.7-1.1-3-3-5.4-3.1c-2.1-1.7-4.7-2.7-6-5.2
		c-1.2-2.4-2.6-4.7-2.5-7.5c0.7-0.9,1.3-1.6,2.1-2.4c1.6-0.5,3.4-1,5.6-1.6c1.7-0.9,3.1-2.6,4.1-4.7c0.3-0.6,0.7-1.2,1.7-1.3
		c0.8,0.8,1.8,1.6,2.6,2.5c2,2.3,4.6,3.8,7.3,4.9c2.6,1.1,5.1,2.3,7.5,3.7c1.1,0.6,2.1,1.3,3.6,2.2c0.8,1,2.3,2,3.8,2.8
		c0.7,0.4,1.4,0.6,2.1,0c-0.1-1-0.7-1.8-1.3-2.5c-1.6-1.9-3.5-3.7-5.6-5.1c-1.3-0.9-2.7-1.8-4-2.7c-0.8-0.6-1.5-1.3-2.5-2.1
		c-0.4-1.1-0.8-2.5-1.2-3.8c0.7-1.3,0.9-2.8,2.6-3c2,0.9,3.8,1.7,5.6,3c2.3,1.7,4.9,2.2,7.7,1.3c0.3-0.1,0.5-0.3,0.9-0.6
		c-0.9-1-1.7-1.9-2.4-2.8c-0.8-1-1.5-2-1.3-3.6c0.3-0.2,0.7-0.5,1.1-0.5c0.8-0.1,1.7-0.1,2.5-0.1c1.2,0,2.4-0.2,3.3-0.8
		c1.3-1.5,0.9-3.1,0.8-4.6c-1-2.1-1.6-2.7-4.1-4.4c-3.7-2.5-7.1-5.5-10.2-8.5c-0.9-1.6-1.5-3.2-1.4-4.9c-1.4-2.5-3.1-4.5-6.2-4.9
		c-0.2,0.4-0.6,0.8-0.6,1.1c0,1.3-0.6,2.5-1.2,3.6c-0.9,1.6-1.7,3.3-3.1,4.6c-1.3,1.2-2.8,1.8-4.2,2.4c-1.6-0.7-3.1-1.4-4.6-2
		c-3.4-1.3-6.8-2.6-10.5-2.8c-0.5,0-1-0.2-1.5-0.4c-2.3-0.8-4.7-0.7-7-1.1c-0.2,0-0.5,0-0.8,0.1c-1.9,0.6-3.9,0.4-5.8,0.5
		c-1.3,0-2.6-0.2-3.8,0.1c-2.8,0.5-5.6,0.3-8.4,0.4c-0.8,0-1.6-0.1-2.3,0.1c-1.5,0.5-3,0.4-4.5,0.4c-2.5,0-5.1,0-7.6,0.1
		c-0.9,0-1.8,0.2-2.5,0.3c-1.1-0.1-2-0.3-2.8-0.3c-2.5,0.1-4.8-0.9-7.1-1.6c-1.6-0.5-3.1-1.4-4.2-2c-1.1-1.4-2-2.4-2.8-3.5
		c-1.4-1.9-2.8-3.8-3.5-6.2c-0.2-0.6-0.4-1.3-1-1.7c-0.9,0.7-1.8,1.3-2.8,2c-0.2,0.8-0.5,1.7-0.6,2.6c-0.1,1.9-0.1,3.7-0.1,5.6
		c0,0.6,0,1.2,0.2,1.8c0.9,2.8,1.9,5.7,4.2,7.7c1.3,1.2,2.8,2.2,4.2,3.3c1.7,1.2,3.2,2.5,4.1,4.4c0.3,0.6,0.7,1.2,1,1.8
		c0.1,2.8,0.9,5.5,0.7,8.3c0,0.2,0,0.5,0.1,0.8c0.5,1.4,0.3,2.9,0.3,4.3c0,2.5,0,4.9,0,7.4c0,1.4,0,2.9-0.3,4.3
		c-0.3,1.2-0.5,2.5-0.6,3.7c0,1.2-0.4,2.3-0.8,3.5c-0.6,1.6-1.3,3.1-2,4.7c-0.3,0.6-0.5,1.3-0.6,1.9c-0.2,1,0,2,0.8,2.5
		C471.1,341.7,471.8,340.7,472.7,340.4z"/>
	<path d="M264.2,187.8c-0.4-1,0.4-2.2,1-3.1c2-2.9,3.8-5.8,4.8-9.2c0.1-0.4,0.3-0.8,0.4-1.2c0.4-2.3,1.2-4.5,1.8-6.8
		c0.6-2.2,0.9-6.8,1.2-9c0.2-2.3,0-4.6-0.4-6.8c-0.6-3-0.9-5.1-1.7-8c-0.2-0.8-0.8-2.5-1.1-3.3c-0.3-0.9-0.8-2.5-0.6-3.4
		c0-0.2,0.4-0.4,0.6-0.2c0.6,0.8,1.5,3.1,2,4.5c1,2.9,1.5,4.7,2.1,7.7c0.4,2,0.9,4.8,1,6.8c0.1,3,0.2,5.6-0.1,8.9
		c-0.8,9.3-8.6,22.6-11.1,23.6C263.4,188.6,264.5,188.6,264.2,187.8z"/>
	<path d="M245.3,174.3c-0.2-0.1-0.3-0.4-0.3-0.7c0-0.3,0.6-1.4,0.9-2.2c0.3-0.8,0.7-1.5,0.9-2.3c0.5-1.7,1.1-3.3,1.3-5.1
		c0.1-1.7,0.5-3.3,0.5-5c0-2.9-0.7-5.5-1.2-7.6c-0.1-0.5-0.7-2.4-0.2-2.5c0.6-0.2,1.8,1.2,2.1,1.9c0.5,1,0.8,2.4,1.1,4.7
		c0.3,1.9,0.4,3.5,0.3,5.2c-0.1,1.5-0.4,4.4-0.7,5.9c-0.5,2.6-2.6,6.1-3.5,7.3C246.1,174.3,245.8,174.5,245.3,174.3z"/>
	<path d="M231.2,167.2c-0.3,0.4-1.7,2-2.5,2c-0.6,0-0.1-1.1,0.5-1.9c1.2-1.6,1.9-3.7,1.7-6c0-3.5-1.2-4-2.3-5.2
		c-0.9-0.9,0.3-1.2,1.2-1.1c1.5,0.3,2.5,2.2,2.8,3c0.3,0.8,0.5,2.2,0.4,4.3C232.9,164.7,232.2,165.7,231.2,167.2z"/>
</g>
<g id="Layer_3" display="none">
</g>
<g id="Layer_4" display="none">
</g>
</svg>
