<?xml version="1.0" encoding="utf-8"?>
<!-- Generator: Adobe Illustrator 18.1.0, SVG Export Plug-In . SVG Version: 6.00 Build 0)  -->
<svg version="1.1" xmlns="http://www.w3.org/2000/svg" xmlns:xlink="http://www.w3.org/1999/xlink" x="0px" y="0px"
	 viewBox="0 0 575 867" enable-background="new 0 0 575 867" xml:space="preserve">
<g id="Layer_1" display="none">
</g>
<g id="Layer_2">
	<g>
		<rect x="537.3" y="269" fill="#822582" width="47.6" height="91"/>
		<rect x="537.3" y="136" fill="#000005" width="47.6" height="133"/>
		<rect x="537.3" y="76" fill="#822582" width="47.6" height="60"/>
		<rect x="537.3" y="507.1" fill="#822582" width="47.6" height="91"/>
		<rect x="537.3" y="598.1" fill="#000005" width="47.6" height="133"/>
		<rect x="537.3" y="731.1" fill="#822582" width="47.6" height="60"/>
		<rect x="537.3" y="791.1" fill="#000005" width="47.6" height="75.9"/>
		<rect x="537.3" y="0.1" fill="#000005" width="47.6" height="75.9"/>
		<polygon fill="#000005" points="584.9,360 584.9,507.1 537.3,507.1 537.3,460.5 580.4,435.3 537.3,409.8 537.3,360 		"/>
	</g>
	<g>
		<rect x="-9.9" y="0" fill="#822582" width="47.6" height="123.9"/>
		<rect x="-9.9" y="124" fill="#000005" width="47.6" height="71.9"/>
		<rect x="-9.9" y="195.9" fill="#822582" width="47.6" height="164"/>
		<rect x="-9.9" y="743.1" fill="#822582" width="47.6" height="123.9"/>
		<rect x="-9.9" y="671.1" fill="#000005" width="47.6" height="71.9"/>
		<rect x="-9.9" y="507.1" fill="#822582" width="47.6" height="164"/>
		<polygon fill="#000005" points="-9.9,359.9 -9.9,507.1 37.7,507.1 37.7,460.4 -5.4,435.3 37.7,409.8 37.7,359.9 		"/>
	</g>
	<rect x="175.6" y="117.6" fill="#050505" width="225.2" height="39.3"/>
	<rect x="145" y="242.4" fill="#848484" width="88.3" height="88.3"/>
	<rect x="145" y="342.1" fill="#848484" width="88.3" height="88.3"/>
	<rect x="145" y="441" fill="#848484" width="88.3" height="88.3"/>
	<rect x="145" y="540.7" fill="#848484" width="88.3" height="88.3"/>
	<rect x="244.7" y="242.4" fill="#848484" width="88.3" height="88.3"/>
	<rect x="244.7" y="342.1" fill="#848484" width="88.3" height="88.3"/>
	<rect x="244.7" y="441" fill="#848484" width="88.3" height="88.3"/>
	<rect x="244.7" y="540.7" fill="#848484" width="88.3" height="88.3"/>
	<rect x="343" y="242.4" fill="#848484" width="88.3" height="88.3"/>
	<rect x="343" y="342.1" fill="#848484" width="88.3" height="88.3"/>
	<rect x="343" y="441" fill="#848484" width="88.3" height="88.3"/>
	<rect x="343" y="540.7" fill="#848484" width="88.3" height="88.3"/>
	<rect x="45.2" y="639.5" fill="#848484" width="88.3" height="88.3"/>
	<rect x="45.2" y="739.2" fill="#848484" width="484.6" height="88.3"/>
	<rect x="45.2" y="0" fill="#848484" width="484.6" height="31.5"/>
	<rect x="45.2" y="840.4" fill="#848484" width="484.6" height="26.6"/>
	<rect x="45.2" y="42.5" fill="#848484" width="88.3" height="88.3"/>
	<rect x="45.2" y="142.2" fill="#848484" width="88.3" height="88.3"/>
	<rect x="441.5" y="639.5" fill="#848484" width="88.3" height="88.3"/>
	<rect x="441.5" y="42.5" fill="#848484" width="88.3" height="88.3"/>
	<rect x="441.5" y="142.2" fill="#848484" width="88.3" height="88.3"/>
	<rect x="145" y="42.5" fill="#848484" width="88.3" height="49.6"/>
	<rect x="244.7" y="42.5" fill="#848484" width="88.3" height="49.6"/>
	<rect x="145" y="181.4" fill="#848484" width="88.3" height="49.1"/>
	<rect x="244.7" y="181.4" fill="#848484" width="88.3" height="49.1"/>
	<rect x="343" y="42.5" fill="#848484" width="88.3" height="49.6"/>
	<rect x="343" y="181.4" fill="#848484" width="88.3" height="49.1"/>
	<rect x="145" y="639.5" fill="#848484" width="88.3" height="88.3"/>
	<rect x="244.7" y="639.5" fill="#848484" width="88.3" height="88.3"/>
	<rect x="343" y="639.5" fill="#848484" width="88.3" height="88.3"/>
	<g>
		<rect x="45.2" y="564.6" fill="#000005" width="88.3" height="64.4"/>
		<rect x="45.2" y="500.1" fill="#303030" width="88.3" height="64.4"/>
		<rect x="45.2" y="435.7" fill="#616161" width="88.3" height="64.4"/>
		<rect x="45.2" y="371.3" fill="#8E8E8E" width="88.3" height="64.4"/>
		<rect x="45.2" y="306.8" fill="#BABABA" width="88.3" height="64.4"/>
		<rect x="45.2" y="242.4" fill="#EDEDED" width="88.3" height="64.4"/>
	</g>
	<g>
		<rect x="441.5" y="242.4" fill="#050505" width="7.6" height="64.4"/>
		<rect x="457.6" y="242.4" fill="#050505" width="7.6" height="64.4"/>
		<rect x="473.8" y="242.4" fill="#050505" width="7.6" height="64.4"/>
		<rect x="489.9" y="242.4" fill="#050505" width="7.6" height="64.4"/>
		<rect x="506" y="242.4" fill="#050505" width="7.6" height="64.4"/>
		<rect x="522.2" y="242.4" fill="#050505" width="7.6" height="64.4"/>
		<rect x="441.5" y="306.8" fill="#050505" width="3.7" height="64.4"/>
		<rect x="450.9" y="306.8" fill="#050505" width="3.7" height="64.4"/>
		<rect x="460.3" y="306.8" fill="#050505" width="3.7" height="64.4"/>
		<rect x="469.7" y="306.8" fill="#050505" width="3.7" height="64.4"/>
		<rect x="479.1" y="306.8" fill="#050505" width="3.7" height="64.4"/>
		<rect x="488.5" y="306.8" fill="#050505" width="3.7" height="64.4"/>
		<rect x="497.9" y="306.8" fill="#050505" width="3.7" height="64.4"/>
		<rect x="507.3" y="306.8" fill="#050505" width="3.7" height="64.4"/>
		<rect x="516.7" y="306.8" fill="#050505" width="3.7" height="64.4"/>
		<rect x="526.1" y="306.8" fill="#050505" width="3.7" height="64.4"/>
		<rect x="441.5" y="371.3" fill="#050505" width="2.4" height="64.4"/>
		<rect x="448.1" y="371.3" fill="#050505" width="2.4" height="64.4"/>
		<rect x="454.7" y="371.3" fill="#050505" width="2.4" height="64.4"/>
		<rect x="461.3" y="371.3" fill="#050505" width="2.4" height="64.4"/>
		<rect x="467.9" y="371.3" fill="#050505" width="2.4" height="64.4"/>
		<rect x="474.5" y="371.3" fill="#050505" width="2.4" height="64.4"/>
		<rect x="481.2" y="371.3" fill="#050505" width="2.4" height="64.4"/>
		<rect x="487.8" y="371.3" fill="#050505" width="2.4" height="64.4"/>
		<rect x="494.4" y="371.3" fill="#050505" width="2.4" height="64.4"/>
		<rect x="501" y="371.3" fill="#050505" width="2.4" height="64.4"/>
		<rect x="507.6" y="371.3" fill="#050505" width="2.4" height="64.4"/>
		<rect x="514.2" y="371.3" fill="#050505" width="2.4" height="64.4"/>
		<rect x="520.8" y="371.3" fill="#050505" width="2.4" height="64.4"/>
		<rect x="527.4" y="371.3" fill="#050505" width="2.4" height="64.4"/>
		<rect x="441.5" y="435.7" fill="#050505" width="2.2" height="64.4"/>
		<rect x="446.5" y="435.7" fill="#050505" width="2.2" height="64.4"/>
		<rect x="451.6" y="435.7" fill="#050505" width="2.2" height="64.4"/>
		<rect x="456.7" y="435.7" fill="#050505" width="2.2" height="64.4"/>
		<rect x="461.7" y="435.7" fill="#050505" width="2.2" height="64.4"/>
		<rect x="466.8" y="435.7" fill="#050505" width="2.2" height="64.4"/>
		<rect x="471.9" y="435.7" fill="#050505" width="2.2" height="64.4"/>
		<rect x="476.9" y="435.7" fill="#050505" width="2.2" height="64.4"/>
		<rect x="482" y="435.7" fill="#050505" width="2.2" height="64.4"/>
		<rect x="487.1" y="435.7" fill="#050505" width="2.2" height="64.4"/>
		<rect x="492.1" y="435.7" fill="#050505" width="2.2" height="64.4"/>
		<rect x="497.2" y="435.7" fill="#050505" width="2.2" height="64.4"/>
		<rect x="502.3" y="435.7" fill="#050505" width="2.2" height="64.4"/>
		<rect x="507.3" y="435.7" fill="#050505" width="2.2" height="64.4"/>
		<rect x="512.4" y="435.7" fill="#050505" width="2.2" height="64.4"/>
		<rect x="517.5" y="435.7" fill="#050505" width="2.2" height="64.4"/>
		<rect x="522.5" y="435.7" fill="#050505" width="2.2" height="64.4"/>
		<rect x="527.6" y="435.7" fill="#050505" width="2.2" height="64.4"/>
		<rect x="441.5" y="500.1" fill="#050505" width="1.3" height="64.4"/>
		<rect x="445.6" y="500.1" fill="#050505" width="1.3" height="64.4"/>
		<rect x="449.8" y="500.1" fill="#050505" width="1.3" height="64.4"/>
		<rect x="453.9" y="500.1" fill="#050505" width="1.3" height="64.4"/>
		<rect x="458.1" y="500.1" fill="#050505" width="1.3" height="64.4"/>
		<rect x="462.2" y="500.1" fill="#050505" width="1.3" height="64.4"/>
		<rect x="466.3" y="500.1" fill="#050505" width="1.3" height="64.4"/>
		<rect x="470.5" y="500.1" fill="#050505" width="1.3" height="64.4"/>
		<rect x="474.6" y="500.1" fill="#050505" width="1.3" height="64.4"/>
		<rect x="478.8" y="500.1" fill="#050505" width="1.3" height="64.4"/>
		<rect x="482.9" y="500.1" fill="#050505" width="1.3" height="64.4"/>
		<rect x="487.1" y="500.1" fill="#050505" width="1.3" height="64.4"/>
		<rect x="491.2" y="500.1" fill="#050505" width="1.3" height="64.4"/>
		<rect x="495.4" y="500.1" fill="#050505" width="1.3" height="64.4"/>
		<rect x="499.5" y="500.1" fill="#050505" width="1.3" height="64.4"/>
		<rect x="503.6" y="500.1" fill="#050505" width="1.3" height="64.4"/>
		<rect x="507.8" y="500.1" fill="#050505" width="1.3" height="64.4"/>
		<rect x="511.9" y="500.1" fill="#050505" width="1.3" height="64.4"/>
		<rect x="516.1" y="500.1" fill="#050505" width="1.3" height="64.4"/>
		<rect x="520.2" y="500.1" fill="#050505" width="1.3" height="64.4"/>
		<rect x="524.4" y="500.1" fill="#050505" width="1.3" height="64.4"/>
		<rect x="528.5" y="500.1" fill="#050505" width="1.3" height="64.4"/>
		<rect x="441.5" y="564.6" fill="#050505" width="0.7" height="64.4"/>
		<rect x="445" y="564.6" fill="#050505" width="0.7" height="64.4"/>
		<rect x="448.5" y="564.6" fill="#050505" width="0.7" height="64.4"/>
		<rect x="452" y="564.6" fill="#050505" width="0.7" height="64.4"/>
		<rect x="455.5" y="564.6" fill="#050505" width="0.7" height="64.4"/>
		<rect x="459" y="564.6" fill="#050505" width="0.7" height="64.4"/>
		<rect x="462.5" y="564.6" fill="#050505" width="0.7" height="64.4"/>
		<rect x="466" y="564.6" fill="#050505" width="0.7" height="64.4"/>
		<rect x="469.5" y="564.6" fill="#050505" width="0.7" height="64.4"/>
		<rect x="473" y="564.6" fill="#050505" width="0.7" height="64.4"/>
		<rect x="476.5" y="564.6" fill="#050505" width="0.7" height="64.4"/>
		<rect x="480.1" y="564.6" fill="#050505" width="0.7" height="64.4"/>
		<rect x="483.6" y="564.6" fill="#050505" width="0.7" height="64.4"/>
		<rect x="487.1" y="564.6" fill="#050505" width="0.7" height="64.4"/>
		<rect x="490.6" y="564.6" fill="#050505" width="0.7" height="64.4"/>
		<rect x="494.1" y="564.6" fill="#050505" width="0.7" height="64.4"/>
		<rect x="497.6" y="564.6" fill="#050505" width="0.7" height="64.4"/>
		<rect x="501.1" y="564.6" fill="#050505" width="0.7" height="64.4"/>
		<rect x="504.6" y="564.6" fill="#050505" width="0.7" height="64.4"/>
		<rect x="508.1" y="564.6" fill="#050505" width="0.7" height="64.4"/>
		<rect x="511.6" y="564.6" fill="#050505" width="0.7" height="64.4"/>
		<rect x="515.1" y="564.6" fill="#050505" width="0.7" height="64.4"/>
		<rect x="518.6" y="564.6" fill="#050505" width="0.7" height="64.4"/>
		<rect x="522.1" y="564.6" fill="#050505" width="0.7" height="64.4"/>
		<rect x="525.6" y="564.6" fill="#050505" width="0.7" height="64.4"/>
		<rect x="529.1" y="564.6" fill="#050505" width="0.7" height="64.4"/>
	</g>
	
		<circle display="none" fill="#FFFFFF" stroke="#B2B2B2" stroke-width="7" stroke-miterlimit="10" cx="287.5" cy="419.7" r="196.3"/>
	
		<rect x="100" y="100" display="none" fill="none" stroke="#E30613" stroke-width="2" stroke-miterlimit="10" width="375" height="667"/>
	<g display="none">
		<rect x="150.8" y="331.5" display="inline" fill="none" width="273.4" height="209"/>
		<text transform="matrix(1 0 0 1 151.393 356.207)" display="inline"><tspan x="0" y="0" font-family="'ApexSans-Book'" font-size="33">The 10 trends that </tspan><tspan x="27.7" y="50" font-family="'ApexSans-Book'" font-size="33">will change the </tspan><tspan x="0.1" y="100" font-family="'ApexSans-Book'" font-size="33">digital world in the </tspan><tspan x="36.2" y="150" font-family="'ApexSans-Book'" font-size="33">next 10 years</tspan></text>
	</g>
</g>
<g id="Layer_3">
</g>
<g id="Layer_4">
</g>
<g id="Layer_5">
</g>
</svg>
