<?xml version="1.0" encoding="utf-8"?>
<!-- Generator: Adobe Illustrator 18.1.0, SVG Export Plug-In . SVG Version: 6.00 Build 0)  -->
<svg version="1.1" xmlns="http://www.w3.org/2000/svg" xmlns:xlink="http://www.w3.org/1999/xlink" x="0px" y="0px"
	 viewBox="0 0 1190.6 785" enable-background="new 0 0 1190.6 785" xml:space="preserve">
<g id="Layer_1" display="none">
</g>
<g id="Layer_2">
	<rect x="484.7" y="75.1" fill="#050505" width="225.2" height="39.3"/>
	<rect x="254.6" y="522.1" fill="#000005" width="88.3" height="64.4"/>
	<rect x="254.6" y="457.6" fill="#303030" width="88.3" height="64.4"/>
	<rect x="254.6" y="393.2" fill="#616161" width="88.3" height="64.4"/>
	<rect x="254.6" y="328.8" fill="#8E8E8E" width="88.3" height="64.4"/>
	<rect x="254.6" y="264.3" fill="#BABABA" width="88.3" height="64.4"/>
	<rect x="254.6" y="199.9" fill="#EDEDED" width="88.3" height="64.4"/>
	<g>
		<rect x="850.2" y="199.9" fill="#050505" width="7.6" height="64.4"/>
		<rect x="866.4" y="199.9" fill="#050505" width="7.6" height="64.4"/>
		<rect x="882.5" y="199.9" fill="#050505" width="7.6" height="64.4"/>
		<rect x="898.7" y="199.9" fill="#050505" width="7.6" height="64.4"/>
		<rect x="914.8" y="199.9" fill="#050505" width="7.6" height="64.4"/>
		<rect x="930.9" y="199.9" fill="#050505" width="7.6" height="64.4"/>
		<rect x="850.2" y="264.3" fill="#050505" width="3.7" height="64.4"/>
		<rect x="859.6" y="264.3" fill="#050505" width="3.7" height="64.4"/>
		<rect x="869" y="264.3" fill="#050505" width="3.7" height="64.4"/>
		<rect x="878.4" y="264.3" fill="#050505" width="3.7" height="64.4"/>
		<rect x="887.8" y="264.3" fill="#050505" width="3.7" height="64.4"/>
		<rect x="897.2" y="264.3" fill="#050505" width="3.7" height="64.4"/>
		<rect x="906.6" y="264.3" fill="#050505" width="3.7" height="64.4"/>
		<rect x="916" y="264.3" fill="#050505" width="3.7" height="64.4"/>
		<rect x="925.4" y="264.3" fill="#050505" width="3.7" height="64.4"/>
		<rect x="934.8" y="264.3" fill="#050505" width="3.7" height="64.4"/>
		<rect x="850.2" y="328.8" fill="#050505" width="2.4" height="64.4"/>
		<rect x="856.9" y="328.8" fill="#050505" width="2.4" height="64.4"/>
		<rect x="863.5" y="328.8" fill="#050505" width="2.4" height="64.4"/>
		<rect x="870.1" y="328.8" fill="#050505" width="2.4" height="64.4"/>
		<rect x="876.7" y="328.8" fill="#050505" width="2.4" height="64.4"/>
		<rect x="883.3" y="328.8" fill="#050505" width="2.4" height="64.4"/>
		<rect x="889.9" y="328.8" fill="#050505" width="2.4" height="64.4"/>
		<rect x="896.5" y="328.8" fill="#050505" width="2.4" height="64.4"/>
		<rect x="903.1" y="328.8" fill="#050505" width="2.4" height="64.4"/>
		<rect x="909.8" y="328.8" fill="#050505" width="2.4" height="64.4"/>
		<rect x="916.4" y="328.8" fill="#050505" width="2.4" height="64.4"/>
		<rect x="923" y="328.8" fill="#050505" width="2.4" height="64.4"/>
		<rect x="929.6" y="328.8" fill="#050505" width="2.4" height="64.4"/>
		<rect x="936.2" y="328.8" fill="#050505" width="2.4" height="64.4"/>
		<rect x="850.2" y="393.2" fill="#050505" width="2.2" height="64.4"/>
		<rect x="855.3" y="393.2" fill="#050505" width="2.2" height="64.4"/>
		<rect x="860.4" y="393.2" fill="#050505" width="2.2" height="64.4"/>
		<rect x="865.4" y="393.2" fill="#050505" width="2.2" height="64.4"/>
		<rect x="870.5" y="393.2" fill="#050505" width="2.2" height="64.4"/>
		<rect x="875.6" y="393.2" fill="#050505" width="2.2" height="64.4"/>
		<rect x="880.6" y="393.2" fill="#050505" width="2.2" height="64.4"/>
		<rect x="885.7" y="393.2" fill="#050505" width="2.2" height="64.4"/>
		<rect x="890.8" y="393.2" fill="#050505" width="2.2" height="64.4"/>
		<rect x="895.8" y="393.2" fill="#050505" width="2.2" height="64.4"/>
		<rect x="900.9" y="393.2" fill="#050505" width="2.2" height="64.4"/>
		<rect x="906" y="393.2" fill="#050505" width="2.2" height="64.4"/>
		<rect x="911" y="393.2" fill="#050505" width="2.2" height="64.4"/>
		<rect x="916.1" y="393.2" fill="#050505" width="2.2" height="64.4"/>
		<rect x="921.1" y="393.2" fill="#050505" width="2.2" height="64.4"/>
		<rect x="926.2" y="393.2" fill="#050505" width="2.2" height="64.4"/>
		<rect x="931.3" y="393.2" fill="#050505" width="2.2" height="64.4"/>
		<rect x="936.3" y="393.2" fill="#050505" width="2.2" height="64.4"/>
		<rect x="850.2" y="457.6" fill="#050505" width="1.3" height="64.4"/>
		<rect x="854.4" y="457.6" fill="#050505" width="1.3" height="64.4"/>
		<rect x="858.5" y="457.6" fill="#050505" width="1.3" height="64.4"/>
		<rect x="862.7" y="457.6" fill="#050505" width="1.3" height="64.4"/>
		<rect x="866.8" y="457.6" fill="#050505" width="1.3" height="64.4"/>
		<rect x="871" y="457.6" fill="#050505" width="1.3" height="64.4"/>
		<rect x="875.1" y="457.6" fill="#050505" width="1.3" height="64.4"/>
		<rect x="879.2" y="457.6" fill="#050505" width="1.3" height="64.4"/>
		<rect x="883.4" y="457.6" fill="#050505" width="1.3" height="64.4"/>
		<rect x="887.5" y="457.6" fill="#050505" width="1.3" height="64.4"/>
		<rect x="891.7" y="457.6" fill="#050505" width="1.3" height="64.4"/>
		<rect x="895.8" y="457.6" fill="#050505" width="1.3" height="64.4"/>
		<rect x="900" y="457.6" fill="#050505" width="1.3" height="64.4"/>
		<rect x="904.1" y="457.6" fill="#050505" width="1.3" height="64.4"/>
		<rect x="908.3" y="457.6" fill="#050505" width="1.3" height="64.4"/>
		<rect x="912.4" y="457.6" fill="#050505" width="1.3" height="64.4"/>
		<rect x="916.5" y="457.6" fill="#050505" width="1.3" height="64.4"/>
		<rect x="920.7" y="457.6" fill="#050505" width="1.3" height="64.4"/>
		<rect x="924.8" y="457.6" fill="#050505" width="1.3" height="64.4"/>
		<rect x="929" y="457.6" fill="#050505" width="1.3" height="64.4"/>
		<rect x="933.1" y="457.6" fill="#050505" width="1.3" height="64.4"/>
		<rect x="937.3" y="457.6" fill="#050505" width="1.3" height="64.4"/>
		<rect x="850.2" y="522.1" fill="#050505" width="0.7" height="64.4"/>
		<rect x="853.7" y="522.1" fill="#050505" width="0.7" height="64.4"/>
		<rect x="857.3" y="522.1" fill="#050505" width="0.7" height="64.4"/>
		<rect x="860.8" y="522.1" fill="#050505" width="0.7" height="64.4"/>
		<rect x="864.3" y="522.1" fill="#050505" width="0.7" height="64.4"/>
		<rect x="867.8" y="522.1" fill="#050505" width="0.7" height="64.4"/>
		<rect x="871.3" y="522.1" fill="#050505" width="0.7" height="64.4"/>
		<rect x="874.8" y="522.1" fill="#050505" width="0.7" height="64.4"/>
		<rect x="878.3" y="522.1" fill="#050505" width="0.7" height="64.4"/>
		<rect x="881.8" y="522.1" fill="#050505" width="0.7" height="64.4"/>
		<rect x="885.3" y="522.1" fill="#050505" width="0.7" height="64.4"/>
		<rect x="888.8" y="522.1" fill="#050505" width="0.7" height="64.4"/>
		<rect x="892.3" y="522.1" fill="#050505" width="0.7" height="64.4"/>
		<rect x="895.8" y="522.1" fill="#050505" width="0.7" height="64.4"/>
		<rect x="899.3" y="522.1" fill="#050505" width="0.7" height="64.4"/>
		<rect x="902.8" y="522.1" fill="#050505" width="0.7" height="64.4"/>
		<rect x="906.3" y="522.1" fill="#050505" width="0.7" height="64.4"/>
		<rect x="909.9" y="522.1" fill="#050505" width="0.7" height="64.4"/>
		<rect x="913.4" y="522.1" fill="#050505" width="0.7" height="64.4"/>
		<rect x="916.9" y="522.1" fill="#050505" width="0.7" height="64.4"/>
		<rect x="920.4" y="522.1" fill="#050505" width="0.7" height="64.4"/>
		<rect x="923.9" y="522.1" fill="#050505" width="0.7" height="64.4"/>
		<rect x="927.4" y="522.1" fill="#050505" width="0.7" height="64.4"/>
		<rect x="930.9" y="522.1" fill="#050505" width="0.7" height="64.4"/>
		<rect x="934.4" y="522.1" fill="#050505" width="0.7" height="64.4"/>
		<rect x="937.9" y="522.1" fill="#050505" width="0.7" height="64.4"/>
	</g>
	<g>
		
			<rect x="1041.5" y="-50.2" transform="matrix(-0.7071 -0.7071 0.7071 -0.7071 1755.3552 803.335)" fill="#050505" width="5.2" height="176.7"/>
		
			<rect x="1049.1" y="-42.6" transform="matrix(-0.7071 -0.7071 0.7071 -0.7071 1763.011 821.8177)" fill="#050505" width="5.2" height="176.7"/>
		
			<rect x="1056.8" y="-34.9" transform="matrix(-0.7071 -0.7071 0.7071 -0.7071 1770.6667 840.3003)" fill="#050505" width="5.2" height="176.7"/>
		
			<rect x="1064.4" y="-27.2" transform="matrix(-0.7071 -0.7071 0.7071 -0.7071 1778.3224 858.7831)" fill="#050505" width="5.2" height="176.7"/>
		
			<rect x="1072.1" y="-19.6" transform="matrix(-0.7071 -0.7071 0.7071 -0.7071 1785.9784 877.2658)" fill="#050505" width="5.2" height="176.7"/>
		
			<rect x="1079.8" y="-11.9" transform="matrix(-0.7071 -0.7071 0.7071 -0.7071 1793.6342 895.7485)" fill="#050505" width="5.2" height="176.7"/>
		
			<rect x="1087.4" y="-4.3" transform="matrix(-0.7071 -0.7071 0.7071 -0.7071 1801.2899 914.2312)" fill="#050505" width="5.2" height="176.7"/>
		
			<rect x="1095.1" y="3.4" transform="matrix(-0.7071 -0.7071 0.7071 -0.7071 1808.9457 932.7138)" fill="#050505" width="5.2" height="176.7"/>
	</g>
	<g>
		
			<rect x="94.6" y="602.8" transform="matrix(-0.7071 -0.7071 0.7071 -0.7071 -322.8835 1248.6029)" fill="#050505" width="5.2" height="176.7"/>
		
			<rect x="102.2" y="610.5" transform="matrix(-0.7071 -0.7071 0.7071 -0.7071 -315.2277 1267.0856)" fill="#050505" width="5.2" height="176.7"/>
		
			<rect x="109.9" y="618.2" transform="matrix(-0.7071 -0.7071 0.7071 -0.7071 -307.5719 1285.5682)" fill="#050505" width="5.2" height="176.7"/>
		
			<rect x="117.5" y="625.8" transform="matrix(-0.7071 -0.7071 0.7071 -0.7071 -299.9161 1304.0511)" fill="#050505" width="5.2" height="176.7"/>
		
			<rect x="125.2" y="633.5" transform="matrix(-0.7071 -0.7071 0.7071 -0.7071 -292.2603 1322.5338)" fill="#050505" width="5.2" height="176.7"/>
		
			<rect x="132.9" y="641.1" transform="matrix(-0.7071 -0.7071 0.7071 -0.7071 -284.6045 1341.0165)" fill="#050505" width="5.2" height="176.7"/>
		
			<rect x="140.5" y="648.8" transform="matrix(-0.7071 -0.7071 0.7071 -0.7071 -276.9487 1359.4991)" fill="#050505" width="5.2" height="176.7"/>
		
			<rect x="148.2" y="656.4" transform="matrix(-0.7071 -0.7071 0.7071 -0.7071 -269.2929 1377.9818)" fill="#050505" width="5.2" height="176.7"/>
	</g>
	<g>
		
			<rect x="149.4" y="-49.2" transform="matrix(0.7071 -0.7071 0.7071 0.7071 16.8551 118.9053)" fill="#050505" width="5.2" height="176.7"/>
		
			<rect x="141.7" y="-41.6" transform="matrix(0.7071 -0.7071 0.7071 0.7071 9.1993 115.7341)" fill="#050505" width="5.2" height="176.7"/>
		
			<rect x="134.1" y="-33.9" transform="matrix(0.7071 -0.7071 0.7071 0.7071 1.5435 112.563)" fill="#050505" width="5.2" height="176.7"/>
		
			<rect x="126.4" y="-26.3" transform="matrix(0.7071 -0.7071 0.7071 0.7071 -6.1123 109.3919)" fill="#050505" width="5.2" height="176.7"/>
		
			<rect x="118.8" y="-18.6" transform="matrix(0.7071 -0.7071 0.7071 0.7071 -13.7681 106.2207)" fill="#050505" width="5.2" height="176.7"/>
		
			<rect x="111.1" y="-10.9" transform="matrix(0.7071 -0.7071 0.7071 0.7071 -21.4239 103.0496)" fill="#050505" width="5.2" height="176.7"/>
		
			<rect x="103.4" y="-3.3" transform="matrix(0.7071 -0.7071 0.7071 0.7071 -29.0796 99.8785)" fill="#050505" width="5.2" height="176.7"/>
		
			<rect x="95.8" y="4.4" transform="matrix(0.7071 -0.7071 0.7071 0.7071 -36.7355 96.7074)" fill="#050505" width="5.2" height="176.7"/>
	</g>
	<g>
		<rect x="58.1" y="199.9" fill="#848484" width="88.3" height="88.3"/>
		<rect x="157.8" y="199.9" fill="#848484" width="88.3" height="88.3"/>
		<rect x="58.1" y="299.6" fill="#848484" width="88.3" height="88.3"/>
		<rect x="157.8" y="299.6" fill="#848484" width="88.3" height="88.3"/>
		<rect x="58.1" y="398.5" fill="#848484" width="88.3" height="88.3"/>
		<rect x="157.8" y="398.5" fill="#848484" width="88.3" height="88.3"/>
		<rect x="58.1" y="498.2" fill="#848484" width="88.3" height="88.3"/>
		<rect x="157.8" y="498.2" fill="#848484" width="88.3" height="88.3"/>
		<rect x="354.3" y="199.9" fill="#848484" width="88.3" height="88.3"/>
		<rect x="354.3" y="299.6" fill="#848484" width="88.3" height="88.3"/>
		<rect x="354.3" y="398.5" fill="#848484" width="88.3" height="88.3"/>
		<rect x="354.3" y="498.2" fill="#848484" width="88.3" height="88.3"/>
		<rect x="454.1" y="199.9" fill="#848484" width="88.3" height="88.3"/>
		<rect x="454.1" y="299.6" fill="#848484" width="88.3" height="88.3"/>
		<rect x="454.1" y="398.5" fill="#848484" width="88.3" height="88.3"/>
		<rect x="454.1" y="498.2" fill="#848484" width="88.3" height="88.3"/>
		<rect x="553.8" y="199.9" fill="#848484" width="88.3" height="88.3"/>
		<rect x="553.8" y="299.6" fill="#848484" width="88.3" height="88.3"/>
		<rect x="553.8" y="398.5" fill="#848484" width="88.3" height="88.3"/>
		<rect x="553.8" y="498.2" fill="#848484" width="88.3" height="88.3"/>
		<rect x="652.1" y="199.9" fill="#848484" width="88.3" height="88.3"/>
		<rect x="652.1" y="299.6" fill="#848484" width="88.3" height="88.3"/>
		<rect x="652.1" y="398.5" fill="#848484" width="88.3" height="88.3"/>
		<rect x="652.1" y="498.2" fill="#848484" width="88.3" height="88.3"/>
		<rect x="254.6" y="597" fill="#848484" width="88.3" height="88.3"/>
		<rect x="354.3" y="597" fill="#848484" width="88.3" height="88.3"/>
		<rect x="254.6" y="696.7" fill="#848484" width="684" height="88.3"/>
		<rect x="254.6" y="0" fill="#848484" width="88.3" height="88.3"/>
		<rect x="354.3" y="0" fill="#848484" width="88.3" height="88.3"/>
		<rect x="254.6" y="99.7" fill="#848484" width="88.3" height="88.3"/>
		<rect x="354.3" y="99.7" fill="#848484" width="88.3" height="88.3"/>
		<rect x="1046.7" y="199.9" fill="#848484" width="88.3" height="88.3"/>
		<rect x="947.1" y="199.9" fill="#848484" width="88.3" height="88.3"/>
		<rect x="1046.7" y="299.6" fill="#848484" width="88.3" height="88.3"/>
		<rect x="947.1" y="299.6" fill="#848484" width="88.3" height="88.3"/>
		<rect x="1046.7" y="398.5" fill="#848484" width="88.3" height="88.3"/>
		<rect x="947.1" y="398.5" fill="#848484" width="88.3" height="88.3"/>
		<rect x="1046.7" y="498.2" fill="#848484" width="88.3" height="88.3"/>
		<rect x="947.1" y="498.2" fill="#848484" width="88.3" height="88.3"/>
		<rect x="750.6" y="199.9" fill="#848484" width="88.3" height="88.3"/>
		<rect x="750.6" y="299.6" fill="#848484" width="88.3" height="88.3"/>
		<rect x="750.6" y="398.5" fill="#848484" width="88.3" height="88.3"/>
		<rect x="750.6" y="498.2" fill="#848484" width="88.3" height="88.3"/>
		<rect x="850.2" y="597" fill="#848484" width="88.3" height="88.3"/>
		<rect x="750.6" y="597" fill="#848484" width="88.3" height="88.3"/>
		<rect x="850.2" y="0" fill="#848484" width="88.3" height="88.3"/>
		<rect x="750.6" y="0" fill="#848484" width="88.3" height="88.3"/>
		<rect x="850.2" y="99.7" fill="#848484" width="88.3" height="88.3"/>
		<rect x="750.6" y="99.7" fill="#848484" width="88.3" height="88.3"/>
		<rect x="454.1" y="0" fill="#848484" width="88.3" height="49.6"/>
		<rect x="553.8" y="0" fill="#848484" width="88.3" height="49.6"/>
		<rect x="454.1" y="138.9" fill="#848484" width="88.3" height="49.1"/>
		<rect x="553.8" y="138.9" fill="#848484" width="88.3" height="49.1"/>
		<rect x="652.1" y="0" fill="#848484" width="88.3" height="49.6"/>
		<rect x="652.1" y="138.9" fill="#848484" width="88.3" height="49.1"/>
		<rect x="454.1" y="597" fill="#848484" width="88.3" height="88.3"/>
		<rect x="553.8" y="597" fill="#848484" width="88.3" height="88.3"/>
		<rect x="652.1" y="597" fill="#848484" width="88.3" height="88.3"/>
		<polygon fill="#848484" points="1046.7,0 1046.7,18.2 1064.9,0 		"/>
		<polygon fill="#848484" points="1135.1,88.3 1135.1,74 1120.7,88.3 		"/>
		<polygon fill="#848484" points="1035.4,0 947.1,0 947.1,88.3 976.6,88.3 1035.4,29.5 		"/>
		<polygon fill="#848484" points="1046.7,188 1135.1,188 1135.1,99.7 1109.4,99.7 1046.7,162.3 		"/>
		<polygon fill="#848484" points="965.2,99.7 947.1,99.7 947.1,188 1035.4,188 1035.4,170.4 964.9,100 		"/>
		<polygon fill="#848484" points="146.4,597 58.1,597 58.1,685.3 85.7,685.3 146.4,624.6 		"/>
		<polygon fill="#848484" points="246.1,597 157.8,597 157.8,613.3 157.8,613.2 229.9,685.3 246.1,685.3 		"/>
		<polygon fill="#848484" points="58.1,696.7 58.1,712.9 74.4,696.7 		"/>
		<polygon fill="#848484" points="146.4,785 146.4,768.8 130.2,785 		"/>
		<polygon fill="#848484" points="157.8,785 246.1,785 246.1,696.7 218.6,696.7 157.8,757.4 		"/>
		<polygon fill="#848484" points="146.4,0 130.1,0 146.4,16.3 		"/>
		<polygon fill="#848484" points="58.1,88.3 74.3,88.3 58.1,72.2 		"/>
		<polygon fill="#848484" points="246.1,88.3 246.1,0 157.8,0 157.8,27.7 218.5,88.3 		"/>
		<polygon fill="#848484" points="58.1,99.7 58.1,188 146.4,188 146.4,160.5 85.6,99.7 		"/>
		<polygon fill="#848484" points="157.8,171.8 157.8,171.8 157.8,188 246.1,188 246.1,99.7 229.8,99.7 229.9,99.8 		"/>
		<polygon fill="#848484" points="1135.1,685.3 1135.1,597 1046.7,597 1046.7,624.5 1107.5,685.3 		"/>
		<polygon fill="#848484" points="1035.4,597 947.1,597 947.1,685.3 963.4,685.3 1035.4,613.3 		"/>
		<polygon fill="#848484" points="1046.7,785 1063,785 1046.7,768.7 		"/>
		<polygon fill="#848484" points="1135.1,696.7 1118.9,696.7 1135.1,712.9 		"/>
		<polygon fill="#848484" points="947.1,696.7 947.1,785 1035.4,785 1035.4,757.4 974.7,696.7 		"/>
	</g>
	<g>
		
			<rect x="1094.7" y="604" transform="matrix(0.7071 -0.7071 0.7071 0.7071 -168.1898 978.687)" fill="#050505" width="5.2" height="176.7"/>
		
			<rect x="1087.1" y="611.7" transform="matrix(0.7071 -0.7071 0.7071 0.7071 -175.8456 975.5159)" fill="#050505" width="5.2" height="176.7"/>
		
			<rect x="1079.4" y="619.3" transform="matrix(0.7071 -0.7071 0.7071 0.7071 -183.5014 972.3447)" fill="#050505" width="5.2" height="176.7"/>
		
			<rect x="1071.7" y="627" transform="matrix(0.7071 -0.7071 0.7071 0.7071 -191.1572 969.1736)" fill="#050505" width="5.2" height="176.7"/>
		
			<rect x="1064.1" y="634.7" transform="matrix(0.7071 -0.7071 0.7071 0.7071 -198.813 966.0025)" fill="#050505" width="5.2" height="176.7"/>
		
			<rect x="1056.4" y="642.3" transform="matrix(0.7071 -0.7071 0.7071 0.7071 -206.4687 962.8314)" fill="#050505" width="5.2" height="176.7"/>
		
			<rect x="1048.8" y="650" transform="matrix(0.7071 -0.7071 0.7071 0.7071 -214.1246 959.6602)" fill="#050505" width="5.2" height="176.7"/>
		
			<rect x="1041.1" y="657.6" transform="matrix(0.7071 -0.7071 0.7071 0.7071 -221.7804 956.4891)" fill="#050505" width="5.2" height="176.7"/>
	</g>
	<rect x="1142.9" y="227.9" fill="#822582" width="47.6" height="91"/>
	<rect x="1142.9" y="94.9" fill="#000005" width="47.6" height="133"/>
	<rect x="1142.9" y="34.9" fill="#822582" width="47.6" height="60"/>
	<rect x="1142.9" y="0" fill="#000005" width="47.6" height="34.9"/>
	<rect x="1142.9" y="466.1" fill="#822582" width="47.6" height="91"/>
	<rect x="1142.9" y="557.1" fill="#000005" width="47.6" height="133"/>
	<rect x="1142.9" y="690.1" fill="#822582" width="47.6" height="60"/>
	<rect x="1142.9" y="750.1" fill="#000005" width="47.6" height="34.9"/>
	<polygon fill="#000005" points="1190.5,318.9 1190.5,466.1 1142.9,466.1 1142.9,419.4 1186.1,394.3 1142.9,368.8 1142.9,318.9 	"/>
	<rect x="0" y="0" fill="#822582" width="47.6" height="82.9"/>
	<rect x="0" y="83" fill="#000005" width="47.6" height="71.9"/>
	<rect x="0" y="154.9" fill="#822582" width="47.6" height="164"/>
	<rect x="0" y="702.1" fill="#822582" width="47.6" height="82.9"/>
	<rect x="0" y="630.1" fill="#000005" width="47.6" height="71.9"/>
	<rect x="0" y="466.1" fill="#822582" width="47.6" height="164"/>
	<polygon fill="#000005" points="0,318.9 0,466.1 47.6,466.1 47.6,419.4 4.5,394.3 47.6,368.8 47.6,318.9 	"/>
</g>
<g id="Layer_3">
	<g>
		<polyline fill="none" stroke="#050505" stroke-width="4" stroke-miterlimit="10" points="58.1,188 246.1,188 246.1,0 		"/>
		<polyline fill="none" stroke="#050505" stroke-width="4" stroke-miterlimit="10" points="1135.1,188 947.1,188 947.1,0 		"/>
		<polyline fill="none" stroke="#050505" stroke-width="4" stroke-miterlimit="10" points="58.1,199.9 246.1,199.9 246.1,387.9 
			157.8,387.9 157.8,343.8 		"/>
		<polyline fill="none" stroke="#050505" stroke-width="4" stroke-miterlimit="10" points="146.4,343.8 146.4,387.9 58.1,387.9 		
			"/>
		<polyline fill="none" stroke="#050505" stroke-width="4" stroke-miterlimit="10" points="58.1,398.5 146.4,398.5 146.4,442.7 		
			"/>
		<polyline fill="none" stroke="#050505" stroke-width="4" stroke-miterlimit="10" points="157.8,442.7 157.8,398.5 246.1,398.5 
			246.1,586.5 58.1,586.5 		"/>
		<polyline fill="none" stroke="#050505" stroke-width="4" stroke-miterlimit="10" points="1135.1,199.9 947.1,199.9 947.1,387.9 
			1035.4,387.9 1035.4,343.8 		"/>
		<polyline fill="none" stroke="#050505" stroke-width="4" stroke-miterlimit="10" points="1046.7,343.8 1046.7,387.9 1135.1,387.9 
					"/>
		<polyline fill="none" stroke="#050505" stroke-width="4" stroke-miterlimit="10" points="1135.1,398.5 1046.7,398.5 1046.7,442.7 
					"/>
		<polyline fill="none" stroke="#050505" stroke-width="4" stroke-miterlimit="10" points="1035.4,442.7 1035.4,398.5 947.1,398.5 
			947.1,586.5 1135.1,586.5 		"/>
		<polyline fill="none" stroke="#050505" stroke-width="4" stroke-miterlimit="10" points="58.1,597 246.1,597 246.1,785 		"/>
		<polyline fill="none" stroke="#050505" stroke-width="4" stroke-miterlimit="10" points="1135.1,597 947.1,597 947.1,785 		"/>
	</g>
</g>
<g id="Layer_4">
</g>
<g id="Layer_5">
</g>
</svg>
